<?xml version="1.0" standalone="no"?>
<!DOCTYPE svg PUBLIC "-//W3C//DTD SVG 20010904//EN"
 "http://www.w3.org/TR/2001/REC-SVG-20010904/DTD/svg10.dtd">
<svg version="1.0" xmlns="http://www.w3.org/2000/svg"
 width="1033.000000pt" height="1033.000000pt" viewBox="0 0 1033.000000 1033.000000"
 preserveAspectRatio="xMidYMid meet">
<metadata>
Created by potrace 1.14, written by Peter Selinger 2001-2017
</metadata>
<g transform="translate(0.000000,1033.000000) scale(0.100000,-0.100000)"
fill="#000000" stroke="none">
<path d="M5148 10324 c-11 -10 -356 -172 -588 -276 -1235 -552 -2350 -895
-3310 -1017 -204 -26 -219 -27 -471 -42 -189 -11 -216 -14 -213 -28 3 -12 54
-325 99 -601 211 -1311 438 -2474 645 -3300 555 -2213 1348 -3464 2830 -4462
264 -177 572 -360 867 -516 l152 -79 143 75 c752 393 1377 838 1863 1326 762
764 1258 1659 1665 3006 225 746 423 1634 650 2915 54 304 279 1649 277 1651
-1 1 -94 7 -207 13 -1180 68 -2578 481 -4159 1230 -128 61 -235 111 -236 111
-1 0 -4 -3 -7 -6z"/>
</g>
</svg>
