<svg width="20" height="24" viewBox="0 0 20 24" fill="none" xmlns="http://www.w3.org/2000/svg">
<path d="M14.4297 0.0328121C14.0594 0.121875 13.3704 0.375 12.9766 0.5625C11.0266 1.49531 10.1407 2.79375 10.061 4.8375C10.0375 5.37187 10.0469 5.48438 10.0985 5.48438C10.2532 5.47969 11.0219 5.2875 11.4204 5.15156C12.5876 4.75312 13.6657 3.96562 14.1391 3.15469C14.5797 2.39531 14.7813 1.27969 14.6594 0.24375C14.6266 0 14.6126 -0.0093751 14.4297 0.0328121Z" fill="white"/>
<path d="M13.7971 5.81707C13.2627 5.878 12.8643 5.99519 11.969 6.35144C10.2393 7.05457 9.94399 7.06394 8.52368 6.48269C7.91899 6.23425 7.43618 6.06082 7.14087 5.99519C6.14712 5.7655 4.85806 5.90613 3.92993 6.35144C2.47212 7.04519 1.13618 8.62488 0.583056 10.3124C-0.134131 12.5061 0.217431 15.7171 1.50181 18.7264C2.61743 21.3327 4.35649 23.3905 5.85181 23.8639C6.55962 24.0889 7.0143 24.028 8.35962 23.5311C9.52212 23.1046 9.8643 23.0108 10.4456 22.9827C11.0456 22.9499 11.3877 23.0343 12.5784 23.4889C14.5471 24.2483 14.9549 24.1921 16.4924 22.9218C17.5049 22.0874 18.0112 21.3983 18.8784 19.6593C19.2299 18.9561 19.7502 17.7561 19.7502 17.6577C19.7502 17.6249 19.5956 17.5218 19.4034 17.4233C18.0627 16.7343 17.1346 15.5202 16.6706 13.8514C16.5112 13.2749 16.469 12.2389 16.5815 11.6811C16.8299 10.4624 17.6362 9.25769 18.7893 8.38582C18.9299 8.278 19.0471 8.17019 19.0471 8.14675C19.0471 8.11863 18.7987 7.85144 18.4987 7.55144C17.9456 7.003 17.444 6.628 16.8674 6.34207C16.0471 5.92957 14.7674 5.70925 13.7971 5.81707Z" fill="white"/>
</svg>
