<svg width="30" height="54" viewBox="0 0 30 54" fill="none" xmlns="http://www.w3.org/2000/svg">
<path d="M28.8435 49.3358C27.7685 49.387 26.6718 49.3355 25.4904 49.1788C25.4761 49.1763 25.4352 49.1497 25.4168 49.1208C25.2155 48.7933 25.084 48.4443 25.0143 48.0538C24.5695 45.561 22.4085 43.3878 19.8764 42.8863C19.8224 42.8753 19.7673 42.868 19.704 42.8602L19.6451 42.8528C19.5891 42.8451 19.5301 42.8704 19.498 42.9134C19.463 42.9586 19.4558 43.0189 19.4794 43.0711L19.6407 43.4284C19.7836 43.7445 19.9235 44.0538 20.0613 44.364L20.0969 44.4453C20.4872 45.3272 20.8907 46.2392 21.425 47.0761C21.9071 47.8311 22.4844 48.3741 23.1783 48.7228C21.8104 48.3523 20.486 47.8215 19.2297 47.1395C19.2033 47.1252 19.1642 47.079 19.1489 47.0363L18.9473 46.3913C18.9409 46.3681 18.9241 46.3067 18.9293 46.2726C19.1192 45.008 18.904 43.6994 18.2718 42.2723C17.662 40.8958 16.6854 39.7415 15.3689 38.8412C15.2148 38.7358 15.0927 38.6943 15.0057 38.7176C14.9845 38.7233 14.9665 38.7326 14.9535 38.7444C14.9134 38.7793 14.8939 38.8314 14.9013 38.8837L14.9354 39.1184C14.9599 39.2928 14.9844 39.4639 15.011 39.6349C15.0585 39.9358 15.1029 40.237 15.1472 40.5385L15.1536 40.582C15.2644 41.3345 15.3787 42.1129 15.5347 42.881C15.717 43.7771 16.0089 44.8024 16.7929 45.6131C16.797 45.6171 16.8009 45.6215 16.805 45.6256C15.8272 44.9168 14.8949 44.122 14.0195 43.2496C13.9419 43.1719 13.9158 43.0925 13.8944 42.9729C13.8044 42.4671 13.93 42.0027 14.0791 41.5765C14.3667 40.7515 14.433 39.8498 14.294 38.6523C14.0995 36.9778 13.427 35.4259 12.2953 34.0393C12.2642 34.0011 12.2302 33.9653 12.1938 33.9268L12.1108 33.8386C12.0708 33.7955 12.0052 33.7775 11.9461 33.7962C11.8873 33.8153 11.8447 33.8666 11.8375 33.9266C11.78 34.4002 11.724 34.8566 11.6682 35.3097L11.6326 35.5992C11.5138 36.5662 11.3913 37.6907 11.443 38.8032C11.4798 39.5883 11.6617 40.3067 11.9863 40.9501C11.0886 39.805 10.2693 38.5603 9.54268 37.2367C9.53453 37.222 9.52233 37.1815 9.53147 37.0781C9.57651 36.5969 9.76576 36.1208 10.0645 35.7376C10.7184 34.8983 10.9528 33.9125 11.0958 33.0589C11.389 31.3131 11.1388 29.6089 10.3306 27.8487C10.3221 27.8302 10.311 27.8126 10.2984 27.7936L10.2882 27.7785C10.2635 27.7408 10.2235 27.7157 10.1777 27.7093C10.133 27.7035 10.0833 27.7201 10.0561 27.7437C10.0278 27.7634 9.98481 27.7933 9.96586 27.8463C9.85082 28.1277 9.73369 28.4121 9.61636 28.6963L9.59672 28.7442C9.30107 29.4618 8.99522 30.2035 8.70712 30.9379C8.37281 31.7869 8.18719 32.5748 8.13948 33.3468C8.11656 33.7196 8.12991 34.069 8.18029 34.3983C7.72148 33.2894 7.3215 32.1389 6.98579 30.9607C6.90572 30.6795 6.88201 30.4453 7.01191 30.1471C7.14892 29.8296 7.30328 29.6314 7.54428 29.4634C8.53503 28.7749 9.01496 27.7523 9.32233 26.9384C9.81844 25.622 9.93869 24.2128 9.68991 22.63C9.6649 22.467 9.63186 22.3041 9.59664 22.1319L9.58883 22.0927C9.57161 22.009 9.55379 21.9217 9.53601 21.829C9.52393 21.7676 9.47596 21.7198 9.41383 21.7071C9.35373 21.695 9.28783 21.721 9.252 21.7718L9.15129 21.9165C9.11333 21.9708 9.08086 22.0173 9.04658 22.0633C8.88194 22.2846 8.71606 22.5044 8.54984 22.7248L8.53242 22.7477C8.16753 23.2314 7.79006 23.7316 7.43737 24.2382C6.75219 25.2181 6.38099 26.1103 6.26918 27.0462C6.25064 27.2005 6.23858 27.3514 6.23306 27.4991C6.01227 26.1187 5.88375 24.7355 5.8501 23.3692C5.84571 23.2021 5.8544 23.1504 5.92507 23.1046C5.96939 23.0753 6.00638 23.0319 6.02914 22.9843C6.18659 22.6721 6.47212 22.5528 6.75754 22.4702C7.7092 22.1915 8.34256 21.5174 8.83644 20.8947C10.0475 19.3681 10.3257 16.2434 10.2999 16.1469C10.2864 16.0966 10.2484 16.0566 10.1976 16.0398C10.1477 16.0235 10.0892 16.0351 10.051 16.0657C9.77133 16.2817 9.49078 16.4943 9.20033 16.7145C8.56146 17.1998 7.90087 17.7014 7.27722 18.2234C6.64985 18.7497 6.20308 19.3485 5.94543 20.007C6.04189 18.823 6.20557 17.6436 6.43384 16.4912C6.46202 16.3659 6.70141 16.1768 7.08947 16.0728C7.21568 16.039 7.34153 16.0195 7.45389 16.0163C8.42332 15.9873 9.29239 15.6145 10.161 14.8538C11.0496 14.0753 11.6779 13.0234 12.0818 11.6372C12.0895 11.6105 12.0978 11.5329 12.1018 11.4895C12.1072 11.4363 12.0856 11.3851 12.0443 11.3529C12.0058 11.3221 11.9545 11.3113 11.8968 11.3268L11.8956 11.3271L11.5402 11.4464C11.3224 11.5195 11.111 11.5906 10.8988 11.659L10.6722 11.732C9.99563 11.9497 9.29576 12.1747 8.64554 12.5235C7.90443 12.923 7.40057 13.3665 7.06944 13.9128C7.36503 12.9067 7.70922 11.9326 8.09751 11.0026C8.10806 10.9779 8.17645 10.9261 8.23662 10.8988C8.26607 10.8831 8.37401 10.8289 8.52597 10.7881C8.72753 10.7341 8.91479 10.7272 9.08611 10.7682C10.1593 10.9714 11.2359 10.7194 12.2898 10.0167C13.1547 9.44194 13.8006 8.63182 14.2647 7.54056C14.2798 7.50534 14.292 7.46808 14.3019 7.42962C14.3131 7.38535 14.3032 7.34259 14.274 7.30898C14.1891 7.21071 13.9385 7.22101 13.8342 7.23004C13.5787 7.25342 13.2891 7.27963 13.0049 7.3165C12.8745 7.33287 12.7437 7.34851 12.6126 7.36393L12.5957 7.36578C12.1515 7.41819 11.6922 7.4723 11.2409 7.56951C10.4161 7.74658 9.73739 8.10383 9.2431 8.6245C9.52901 8.10098 9.82926 7.59649 10.1422 7.1143C10.2413 6.96211 10.3572 6.80441 10.5185 6.6022C10.5309 6.58628 10.5668 6.56192 10.6145 6.54614C12.025 6.10934 13.0449 5.17167 13.7321 3.67995C14.1066 2.86781 14.3057 1.91666 14.341 0.772012L14.3423 0.732721C14.3465 0.612236 14.3489 0.545941 14.2514 0.495166C14.1761 0.455991 14.074 0.500905 13.8264 0.682974C13.6007 0.845393 13.3727 1.00545 13.1386 1.16979C12.6683 1.49987 12.1818 1.84124 11.721 2.20309C10.9511 2.80854 10.4079 3.55915 10.1067 4.43372C9.87722 5.09928 9.87855 5.7058 10.1096 6.28507C10.111 6.29184 10.1093 6.30937 10.1088 6.31148C9.40792 7.32697 8.77308 8.42885 8.15931 9.7023C8.51365 8.64806 8.62479 7.51376 8.49904 6.26707C8.37224 5.0102 8.09741 3.93491 7.65911 2.97983C7.6315 2.92009 7.60011 2.86137 7.56042 2.78796L7.50027 2.67461C7.47383 2.62616 7.42304 2.59485 7.36677 2.59269C7.31074 2.59145 7.25611 2.62051 7.22708 2.66725C7.18037 2.74159 7.13405 2.81236 7.08872 2.88119L7.0568 2.9297C6.94075 3.10567 6.83114 3.2718 6.73967 3.45097C5.85178 5.19522 5.51205 6.87729 5.70115 8.59338C5.78571 9.36922 6.00339 9.99071 6.36658 10.4928C6.48687 10.6592 6.64141 10.7951 6.79515 10.93C6.86548 10.9915 6.9359 11.0534 7.00262 11.1184C7.0514 11.1648 7.05808 11.1785 7.05722 11.1759C7.0954 11.4019 7.13122 11.6555 7.16971 11.9612C7.16898 11.9653 7.16565 11.9755 7.1539 12.0039L7.14464 12.0277C6.70689 13.16 6.33643 14.3293 6.03923 15.5164C6.05817 14.6842 5.97617 13.6592 5.65931 12.5275C5.27911 11.1701 4.63555 10.0411 3.69137 9.07554C3.65425 9.03807 3.6007 9.02159 3.53533 9.03446C3.48871 9.04696 3.44991 9.08172 3.43095 9.12841C3.41885 9.15983 3.40601 9.18979 3.39379 9.21827C3.36659 9.28191 3.34132 9.34206 3.32104 9.40452C3.02261 10.3277 2.98191 11.2684 2.97959 11.985C2.97646 13.2989 3.09829 14.3627 3.36298 15.3329C3.58675 16.158 3.90957 16.7518 4.37908 17.2017C4.52513 17.3418 4.6918 17.4539 4.85935 17.5669C4.94825 17.6267 5.03962 17.6883 5.12493 17.7536C5.18453 17.799 5.2215 17.8516 5.23146 17.8837C5.29225 18.0773 5.34119 18.2775 5.3885 18.4711L5.42116 18.6049C5.42682 18.6279 5.42853 18.6556 5.42591 18.6779C5.27859 19.7632 5.191 20.8736 5.16365 21.9972C5.11367 21.6305 5.0471 21.2803 4.96377 20.9436C4.49133 19.0322 3.44437 17.4928 1.85136 16.3675L1.51943 16.1334C1.48089 16.1058 1.43249 16.0972 1.38666 16.1095L1.36212 16.1184C1.31079 16.1416 1.27541 16.1903 1.27011 16.2453C1.26331 16.3116 1.25607 16.3744 1.24897 16.4351C1.23532 16.5525 1.22254 16.6637 1.21634 16.7749C1.1716 17.6421 1.27832 18.5478 1.5624 19.7109L1.56798 19.7336C1.77407 20.58 2.05633 21.7395 2.7025 22.7483C3.33859 23.7414 4.09435 24.1269 4.2388 24.1938L4.25434 24.2015C4.65139 24.398 4.9299 24.6004 5.01819 24.7566C5.05377 24.8197 5.0897 24.8828 5.12841 24.9444C5.30011 25.2185 5.31906 25.5184 5.33956 25.8423C5.35036 26.0057 5.36127 26.1745 5.39417 26.3419C5.5262 27.0117 5.65116 27.6953 5.77193 28.3564L5.78325 28.4175C5.81397 28.5861 5.84469 28.7548 5.87557 28.9234C5.34482 27.4788 4.48661 26.2664 3.31154 25.3057C2.59212 24.7181 1.80009 24.2626 0.956937 23.9516C0.920524 23.9381 0.883163 23.9274 0.833395 23.9137C0.809326 23.9074 0.781338 23.8996 0.747134 23.8894C0.695862 23.8751 0.638413 23.888 0.598617 23.9223C0.557846 23.9572 0.53789 24.0115 0.546395 24.0646C0.561891 24.1607 0.57503 24.2543 0.588453 24.3515C0.616345 24.5504 0.642632 24.7383 0.691752 24.9254C1.20017 26.8649 2.10229 28.5683 3.3733 29.9875C3.72759 30.3836 4.13972 30.6979 4.5987 30.922C5.05334 31.1425 5.50208 31.2242 5.96966 31.1715C5.98001 31.1705 6.00733 31.1783 6.01168 31.1801C6.04891 31.2217 6.08711 31.2632 6.12535 31.3048C6.26094 31.4517 6.40108 31.6036 6.49473 31.7685C6.57335 31.908 6.61723 32.0718 6.66373 32.2454C6.68076 32.3089 6.69792 32.3729 6.71679 32.4352C7.16194 33.9239 7.35861 34.4311 7.96142 35.7063C7.70596 35.3476 7.41222 34.998 7.06823 34.678C5.6755 33.3834 4.15281 32.6594 2.41331 32.4649C2.30251 32.452 2.19437 32.4503 2.06894 32.4481L2.04389 32.4475C1.99299 32.4466 1.93902 32.4454 1.88118 32.4437C1.82864 32.441 1.7764 32.4665 1.74562 32.5092C1.71495 32.5517 1.70752 32.6063 1.72638 32.6559C1.76651 32.7592 1.80224 32.8605 1.83668 32.9596C1.91219 33.1767 1.98345 33.3817 2.09337 33.5741C3.11934 35.3711 4.37269 36.6855 5.9249 37.5926C6.58857 37.9803 7.22001 38.1354 7.85528 38.0668C8.01546 38.0492 8.20431 38.0018 8.51745 37.897L8.60767 37.867C8.62144 37.8625 8.63347 37.8584 8.64462 37.8555C8.66974 37.8487 8.67178 37.8482 8.696 37.8689L9.27713 38.3316C9.28466 38.3377 9.3 38.363 9.31055 38.3804L9.32238 38.3994C10.1613 39.7594 11.0921 41.0363 12.102 42.2144C11.7043 41.8961 11.2878 41.6198 10.8406 41.3748C8.78389 40.2483 5.97247 40.953 5.65867 41.0371L5.61966 41.0479L5.59622 41.059C5.52651 41.1065 5.50662 41.1987 5.55076 41.2686C5.59185 41.3347 5.63173 41.4019 5.678 41.481C5.76571 41.6294 5.85657 41.7826 5.96465 41.9254C6.47948 42.606 7.17914 43.2059 8.16705 43.8141C8.84552 44.2308 9.59345 44.6372 10.4647 44.7875C11.4191 44.9529 12.2115 44.8433 12.9224 44.4466C13.043 44.3783 13.1808 44.2958 13.2871 44.1795C13.363 44.0973 13.3884 44.0925 13.4959 44.1343C13.6232 44.1837 13.7539 44.2188 13.8808 44.2528C13.9509 44.2716 14.0217 44.2907 14.0883 44.3109C14.0995 44.3161 14.1273 44.3422 14.1377 44.3519C15.1164 45.2679 16.1438 46.0877 17.2073 46.8017C16.6826 46.6041 16.1695 46.4969 15.6487 46.4735C14.0569 46.4009 12.5352 46.8721 11.1678 47.8603C10.9637 48.008 10.7498 48.2062 10.7356 48.2199C10.7068 48.2519 10.6926 48.2948 10.6963 48.3387C10.7007 48.3816 10.7228 48.4208 10.7569 48.4462C10.8208 48.4944 10.8832 48.5433 10.945 48.5919L10.9586 48.6025C11.0984 48.7129 11.2567 48.8377 11.4244 48.941C12.179 49.4047 13.016 49.6268 13.8082 49.7978C14.897 50.0307 15.9469 50.032 16.9291 49.802C16.9753 49.7913 17.0214 49.7799 17.0671 49.7677C17.963 49.5276 18.5844 49.0493 18.964 48.3099C18.9694 48.3035 18.9904 48.2884 19.0032 48.2848C19.2131 48.2442 19.4167 48.2212 19.5695 48.206C19.5936 48.2038 19.6257 48.2098 19.6477 48.2209C20.7587 48.7651 21.8973 49.199 23.0509 49.5188C22.8881 49.5152 22.7222 49.5185 22.5548 49.5304C21.4359 49.614 20.3832 50.0317 19.3152 50.8185C18.5949 51.3504 17.9707 52.0154 17.4068 52.8516C17.3603 52.9203 17.376 53.0127 17.4426 53.0618C17.7902 53.3183 18.1775 53.4103 18.5107 53.4662C19.3235 53.6037 20.1976 53.5969 21.1839 53.4457C21.1868 53.4451 21.5017 53.3889 21.9334 53.2732C22.245 53.1897 22.5312 53.0983 22.7838 53.0016C23.0252 52.9094 23.2617 52.8011 23.4868 52.6798C24.5197 52.1192 25.1219 51.3743 25.324 50.4143C25.3297 50.4049 25.3576 50.3772 25.3967 50.356C25.5828 50.2539 25.7529 50.1715 25.9174 50.1034C25.9559 50.0863 26.0088 50.0836 26.0786 50.0917C26.9185 50.1768 27.7898 50.2018 28.6667 50.1661C28.6791 50.1657 28.6915 50.1639 28.7036 50.1607C28.7592 50.1458 28.8023 50.1019 28.8161 50.0455C28.8563 49.8796 28.9153 49.7149 28.9914 49.5561C29.0152 49.5061 29.011 49.4492 28.9805 49.4037C28.9511 49.3595 28.8998 49.3338 28.8435 49.3358Z" fill="white"/>
</svg>
