<svg width="75" height="75" viewBox="0 0 75 75" fill="none" xmlns="http://www.w3.org/2000/svg">
<path d="M27.8174 0.292969C27.2461 0.600586 26.6602 1.56738 26.6602 2.21191C26.6602 2.40234 27.0557 3.45703 27.5391 4.54102C28.0225 5.625 28.418 6.54785 28.418 6.60645C28.418 6.65039 28.1104 6.78223 27.7295 6.88477C25.2246 7.55859 23.0566 9.4043 21.9141 11.792C21.123 13.418 20.9473 14.4141 20.9473 17.1094V19.4824H37.5H54.0527V17.1094C54.0527 14.4141 53.877 13.418 53.0859 11.792C51.9434 9.4043 49.7754 7.55859 47.2852 6.88477C46.8896 6.78223 46.582 6.65039 46.582 6.60645C46.582 6.54785 46.9775 5.625 47.4609 4.54102C47.9443 3.45703 48.3398 2.40234 48.3398 2.21191C48.3398 1.53809 47.7539 0.600586 47.1533 0.292969C46.4941 -0.0439453 46.0107 -0.0732422 45.3662 0.205078C44.6045 0.527344 44.3115 0.966797 43.0811 3.73535L41.9092 6.37207H37.5H33.0908L31.9189 3.73535C31.2744 2.28516 30.6006 0.9375 30.4248 0.74707C29.7363 0 28.7109 -0.175781 27.8174 0.292969Z" fill="white" fill-opacity="0.5"/>
<path d="M5.08296 15.293C3.7939 15.7617 3.66206 16.0986 3.66206 19.1748C3.66206 21.8994 3.83784 23.1445 4.46773 24.9023C5.31734 27.2607 7.26558 29.8242 9.31636 31.2891C10.5175 32.1387 12.7001 33.1641 14.0332 33.4717L15.0878 33.7353V35.9766V38.2324H8.42281C1.09859 38.2324 1.06929 38.2324 0.439407 39.1113C-0.263718 40.1074 -0.0146947 41.4697 1.0107 42.1436L1.50874 42.4805H8.30562H15.1025L15.0585 44.7656L15.0146 47.0508L13.9599 47.3291C9.97554 48.3398 6.62105 51.123 4.89253 54.8437C3.92573 56.9385 3.77925 57.7734 3.70601 61.084C3.63277 64.043 3.64741 64.0869 3.98433 64.5996C4.92183 65.9912 6.89937 65.9033 7.64644 64.4385C7.85152 64.043 7.91011 63.5596 7.91011 62.1826C7.92476 58.0811 8.59859 56.1475 10.7812 53.9648C11.5722 53.1738 12.1289 52.7637 13.0517 52.3096C13.7255 51.9873 14.458 51.6797 14.6923 51.6211C15.0585 51.5332 15.0878 51.5625 15.0878 51.9434C15.1025 53.0859 15.3955 56.0449 15.6005 57.0703C17.2998 65.4199 23.7597 72.1875 32.0361 74.2822C35.581 75.1758 39.4189 75.1758 42.9638 74.2822C51.2402 72.1875 57.7001 65.4199 59.3994 57.0703C59.6044 56.0449 59.8974 53.0859 59.9121 51.9434C59.9121 51.5625 59.9414 51.5332 60.3222 51.6211C60.5419 51.6797 61.2744 51.9873 61.9482 52.3096C62.871 52.7637 63.4277 53.1738 64.2187 53.9648C66.4013 56.1475 67.0751 58.0811 67.0898 62.1826C67.0898 63.5596 67.1484 64.043 67.3535 64.4385C68.1005 65.9033 70.0781 65.9912 71.0156 64.5996C71.3525 64.0869 71.3671 64.043 71.2939 61.084C71.25 58.5498 71.1767 57.9199 70.913 56.9971C69.4775 52.1338 65.8007 48.5303 61.04 47.3291L59.9853 47.0508L59.9414 44.7656L59.8974 42.4805H66.6943H73.4912L73.9892 42.1436C75.0146 41.4697 75.2636 40.1074 74.5605 39.1113C73.9306 38.2324 73.9013 38.2324 66.5771 38.2324H59.9121V35.9766V33.7353L60.9814 33.4717C62.2998 33.1641 64.4824 32.1387 65.6835 31.2891C67.7343 29.8242 69.6826 27.2607 70.5322 24.9023C71.1621 23.1299 71.3378 21.8994 71.3378 19.1455C71.3378 16.9043 71.3085 16.5674 71.0449 16.1572C70.2832 14.8975 68.3789 14.8682 67.456 16.084C67.1923 16.4355 67.1484 16.8018 67.0751 19.043C66.9287 23.0713 66.3574 24.6094 64.2334 26.7627C63.2519 27.7441 62.8125 28.0811 61.8017 28.5498C59.8242 29.4873 59.9707 29.5312 59.8681 27.9053C59.7802 26.2793 59.458 25.4736 58.6376 24.7412C57.5244 23.7744 57.9345 23.8037 48.3837 23.7598L39.6972 23.7158L39.6679 36.7236C39.624 48.9844 39.6093 49.7607 39.3603 50.1416C38.5107 51.4453 36.4892 51.4453 35.6396 50.1416C35.3906 49.7607 35.3759 48.9844 35.332 36.7236L35.3027 23.7158L26.6162 23.7598L17.9443 23.8037L17.2558 24.1406C16.4794 24.5215 15.747 25.2978 15.4248 26.0596C15.3076 26.3379 15.1757 27.1728 15.1318 27.9053L15.0439 29.2529L14.4287 29.0771C11.6162 28.2275 9.03804 25.5029 8.27632 22.5586C8.10054 21.9434 7.98335 20.7129 7.92476 19.043C7.85152 16.8018 7.80757 16.4355 7.5439 16.084C6.94331 15.293 5.97652 14.9707 5.08296 15.293Z" fill="white" fill-opacity="0.5"/>
</svg>
