<svg width="69" height="75" viewBox="0 0 69 75" fill="none" xmlns="http://www.w3.org/2000/svg">
<path d="M32.8884 0.234497C29.8854 1.04016 27.8493 4.13098 28.3327 7.14856C28.655 9.18469 30.0026 11.0011 31.8776 11.8947L32.8737 12.3781L32.9177 13.8429L32.9616 15.3077H34.4997H36.0378L36.0817 13.8282L36.1257 12.3488L36.946 12.0118C38.0739 11.5431 39.5095 10.1808 40.0661 9.02356C41.2673 6.54797 40.8132 3.80872 38.8942 1.88977C37.2683 0.249146 35.0856 -0.35144 32.8884 0.234497Z" fill="white"/>
<path d="M5.34961 3.57434C2.44922 4.20422 0.500977 6.62122 0.500977 9.59485C0.500977 11.5138 1.16016 12.964 2.66895 14.3702C3.57715 15.2198 4.0459 15.4689 5.30566 15.7618C6.55078 16.0548 7.67871 15.9523 8.96777 15.4396L9.91992 15.0587L12.4688 17.5929L15.0176 20.1417L16.0723 19.0724L17.1416 18.0177L14.5928 15.4689C12.6445 13.506 12.0732 12.8615 12.1318 12.6417C12.1758 12.4952 12.3516 12.0118 12.5127 11.5724C12.9082 10.5177 12.9229 8.83313 12.542 7.63196C11.8535 5.39075 10.4912 4.11633 8.25 3.58899C7.16602 3.33997 6.44824 3.32532 5.34961 3.57434Z" fill="white"/>
<path d="M61.4238 3.53039C59.5049 3.79407 57.7324 5.12707 56.8096 6.98743C56.3555 7.91028 56.2676 8.26184 56.209 9.28723C56.1504 10.4884 56.2676 11.1476 56.7803 12.422L56.9707 12.8907L54.4365 15.4396L51.8877 17.9884L52.8838 19.0724C53.4258 19.6583 53.9238 20.1417 53.9824 20.1417C54.0557 20.1417 55.2275 19.0284 56.6191 17.6808C58.5088 15.8351 59.1973 15.2345 59.373 15.3224C61.2773 16.1134 62.2734 16.2599 63.6211 15.9083C64.8076 15.6007 65.584 15.2052 66.3896 14.4581C67.7959 13.1691 68.4844 11.6456 68.499 9.87317C68.5137 8.08606 67.9863 6.75305 66.7412 5.39075C65.3789 3.91125 63.5039 3.25207 61.4238 3.53039Z" fill="white"/>
<path d="M31.4971 20.1564C29.8857 20.3322 27.0732 20.8741 25.5645 21.3136C17.7275 23.5695 10.2715 28.9161 4.54395 36.4015L3.69434 37.5001L4.41211 38.423C10.4766 46.2306 17.6396 51.4015 25.5205 53.672C28.7725 54.6095 30.6182 54.8439 34.5 54.8439C37.459 54.8439 38.2061 54.7999 39.8467 54.507C49.2949 52.8224 57.6006 47.4318 64.5879 38.4083L65.3057 37.5001L64.5879 36.5773C57.6152 27.5831 49.2656 22.1486 39.9199 20.5079C38.5283 20.2589 37.3711 20.171 35.0859 20.1417C33.4307 20.1124 31.8193 20.1271 31.4971 20.1564ZM37.6934 26.0743C41.6924 27.2023 44.7979 30.337 45.9551 34.38C46.4238 36.0206 46.4238 38.9796 45.9551 40.6202C44.7979 44.6925 41.6924 47.798 37.6201 48.9552C36.1113 49.3947 33.0352 49.424 31.5703 49.0138C27.3955 47.8566 24.2168 44.7365 23.0449 40.6202C22.5762 38.965 22.5762 36.006 23.0449 34.38C24.3633 29.8097 28.1133 26.4845 32.8154 25.7228C33.8115 25.5763 36.6387 25.7667 37.6934 26.0743Z" fill="white"/>
<path d="M34.7197 32.4611C35.0273 33.296 34.9834 34.5851 34.6465 35.4933C34.2363 36.5919 33.4893 37.3976 32.376 37.9542C31.4678 38.3937 31.3652 38.423 30.1641 38.3351L28.9043 38.2618L28.9922 38.7159C29.2998 40.2394 30.5889 41.8214 32.1123 42.5831C32.8887 42.9493 33.1084 42.9933 34.5 42.9933C35.9062 42.9933 36.1113 42.9493 36.917 42.5685C38.0303 42.0118 39.0117 41.0304 39.5684 39.9171C39.9492 39.1115 39.9932 38.9064 39.9932 37.5001C39.9932 36.1232 39.9492 35.8741 39.583 35.1417C38.8066 33.5597 36.917 32.1827 35.2617 31.9777L34.5146 31.8898L34.7197 32.4611Z" fill="white"/>
<path d="M12.454 57.2754L9.9345 59.7802L8.82122 59.3994C4.26556 57.876 -0.0703807 61.4062 0.544854 66.1377C0.896416 68.789 3.16692 71.1181 5.74505 71.4551C7.70794 71.7187 9.42181 71.1621 10.9306 69.7705C12.0146 68.7597 12.4394 68.042 12.7617 66.7236C13.0546 65.4492 12.9521 64.3359 12.4394 63.0322L12.0585 62.0801L14.5927 59.5312L17.1269 56.997L16.3945 56.1767C15.999 55.7226 15.5888 55.2246 15.4716 55.0635C15.3691 54.917 15.2079 54.7851 15.12 54.7851C15.0468 54.7851 13.8456 55.9131 12.454 57.2754Z" fill="white"/>
<path d="M53.0303 56.1036L52.0049 57.129L54.5684 59.6925L57.1172 62.2559L56.9268 62.7247C56.4141 63.9991 56.2969 64.6729 56.3555 65.8302C56.4287 67.3536 57 68.6427 58.1133 69.8145C61.0137 72.8907 66.0674 72.0557 67.9863 68.2032C69.583 64.9659 68.3232 61.3477 65.042 59.7511C64.0898 59.297 63.9141 59.253 62.625 59.2677C61.4531 59.2677 61.0723 59.3409 60.2227 59.6778L59.2266 60.088L56.707 57.5831C55.3301 56.2061 54.1582 55.0782 54.1289 55.0782C54.085 55.0782 53.5869 55.547 53.0303 56.1036Z" fill="white"/>
<path d="M32.991 59.7071C32.9324 59.7657 32.8884 60.4395 32.8884 61.2159V62.6222L31.9802 63.047C27.9958 64.9073 27.029 70.0343 30.0906 73.1104C32.5808 75.586 36.4187 75.6007 38.8796 73.1397C40.8132 71.1915 41.282 68.4229 40.0662 65.9766C39.4949 64.8194 38.074 63.4571 36.946 62.9884L36.1257 62.6515L36.0818 61.172L36.0378 59.6925L34.5583 59.6485C33.7527 59.6339 33.0496 59.6485 32.991 59.7071Z" fill="white"/>
</svg>
