<svg width="24" height="24" viewBox="0 0 24 24" xmlns="http://www.w3.org/2000/svg">
<path d="M11.1094 0.77809C8.22656 1.04997 5.775 2.20309 3.83906 4.19997C2.17031 5.92497 1.13906 8.03903 0.764062 10.5C0.651563 11.2453 0.651563 12.8484 0.764062 13.5937C1.31719 17.1984 3.35156 20.1609 6.49219 21.9281C7.62187 22.5609 8.97656 23.0156 10.4062 23.2359C11.0625 23.3343 12.6891 23.3484 13.3594 23.2547C17.6859 22.6734 21.225 19.7859 22.6312 15.7031C23.4516 13.3125 23.4516 10.8843 22.6312 8.3859L22.4391 7.79059L22.5422 7.64528C22.7297 7.38278 23.0109 6.72653 23.1094 6.3234C23.7 3.8859 22.2094 1.4484 19.7719 0.867153C18.6422 0.595278 17.3203 0.829653 16.3078 1.48122C16.1906 1.55622 16.1672 1.55153 15.6984 1.39215C14.7516 1.06872 13.8937 0.881215 12.9609 0.79684C12.4828 0.754653 11.4937 0.745278 11.1094 0.77809ZM13.6312 2.39059C14.1516 2.47965 14.925 2.67653 14.9812 2.73278C14.9953 2.74215 14.9391 2.86403 14.8594 2.99997C14.0391 4.39215 14.0578 6.19684 14.9156 7.5984C15.2344 8.11872 15.8812 8.76559 16.4016 9.08434C17.6391 9.83903 19.1812 9.95153 20.5172 9.38434C20.7 9.30934 20.9344 9.18747 21.0422 9.11715C21.1547 9.05153 21.2531 9.00465 21.2672 9.01872C21.3234 9.07497 21.5203 9.8484 21.6187 10.3968C21.7547 11.175 21.7687 12.7406 21.6422 13.4765C21.2672 15.6187 20.3625 17.4 18.8953 18.8765C17.4375 20.3437 15.6281 21.2672 13.4766 21.6422C12.825 21.7547 11.1797 21.7547 10.5234 21.6422C8.31562 21.2625 6.50625 20.3109 4.99219 18.7406C3.59062 17.2875 2.74219 15.6047 2.38594 13.5703C2.23125 12.7031 2.23125 11.3015 2.38594 10.439C2.76562 8.27809 3.68906 6.51559 5.20781 5.03903C6.05156 4.21872 6.85312 3.65622 7.85156 3.18278C8.71406 2.77497 9.78281 2.4609 10.6641 2.3484C10.8984 2.32028 11.1516 2.28747 11.2266 2.27809C11.6062 2.22653 13.0828 2.29215 13.6312 2.39059ZM19.3828 2.32028C19.9125 2.42809 20.4469 2.72809 20.8594 3.14059C22.0453 4.32653 22.0453 6.16403 20.8594 7.36403C19.6922 8.54059 17.8172 8.54059 16.6359 7.36403C15.4594 6.18278 15.4594 4.31247 16.6359 3.14528C17.3766 2.40465 18.3703 2.10934 19.3828 2.32028Z" />
</svg>
