<svg width="24" height="24" viewBox="0 0 24 24" xmlns="http://www.w3.org/2000/svg">
<path d="M6.49218 3.04219C3.55312 4.29844 1.08749 5.38125 1.01249 5.44219C0.754681 5.64375 0.735931 5.775 0.764056 6.89062C0.796868 7.99687 0.834368 8.39062 1.00781 9.45469C1.54218 12.6562 2.94843 15.6375 5.14687 18.225C6.02343 19.2609 7.36875 20.4984 8.50781 21.3234C9.65156 22.1531 11.6344 23.25 11.9906 23.25C12.3422 23.25 14.0578 22.3266 15.2344 21.5016C17.0063 20.2641 18.6984 18.5812 19.9547 16.8047C22.0031 13.9219 23.1375 10.5047 23.2359 6.91406C23.2641 5.83125 23.2453 5.68125 23.025 5.47031C22.8422 5.29688 12.3328 0.792187 12.0469 0.768749C11.8547 0.75 11.3766 0.946875 6.49218 3.04219ZM16.9172 4.41562L21.7594 6.49219L21.7313 7.1625C21.6094 9.75937 20.9203 12.2156 19.6922 14.4094C18.8953 15.8344 17.9672 17.0531 16.7859 18.2391C15.4406 19.5844 14.1844 20.5125 12.4969 21.4172L12.0375 21.6656L11.8406 21.5812C11.4469 21.4078 10.5516 20.8875 9.89531 20.4516C6.76875 18.375 4.34062 15.2719 3.15937 11.8406C2.64374 10.3453 2.33437 8.72812 2.26874 7.14844L2.24062 6.49219L7.08281 4.42031C9.75 3.28125 11.9625 2.34844 12 2.34375C12.0375 2.34375 14.25 3.27656 16.9172 4.41562Z" />
<path d="M19.1953 9.81556C18.9844 9.914 18.8859 10.0453 18.5297 10.7343C18.0937 11.5828 17.5406 12.4593 16.95 13.2468C16.2984 14.1187 15.8719 14.6062 15.0187 15.45C14.4281 16.0312 14.2969 16.1812 14.2734 16.3265C14.1562 16.9453 14.7328 17.4281 15.2953 17.1843C15.6281 17.0437 17.0766 15.5437 17.8969 14.4937C18.6844 13.4765 19.5281 12.1406 20.0484 11.0859C20.2266 10.7203 20.2547 10.6312 20.2359 10.439C20.2031 10.0593 19.9359 9.79681 19.5609 9.764C19.4297 9.75463 19.275 9.77338 19.1953 9.81556Z" />
</svg>
