<svg width="24" height="24" viewBox="0 0 24 24" xmlns="http://www.w3.org/2000/svg">
<g clip-path="url(#clip0_2_44)">
<path d="M11.1425 0.0735168C10.7641 0.175798 10.8868 0.109314 6.21765 2.79933C2.55085 4.91656 1.96273 5.27455 1.70702 5.53025C1.38995 5.84733 1.14959 6.29737 1.05753 6.73718C0.980822 7.11562 0.980822 16.9142 1.05753 17.2927C1.14959 17.7325 1.38995 18.1825 1.70702 18.4996C1.96273 18.7553 2.56108 19.1184 6.28925 21.2714C8.65196 22.6318 10.7232 23.8029 10.8919 23.8745C11.3215 24.0535 12.1295 24.0586 12.5642 23.8898C12.7228 23.8285 14.7837 22.6625 17.1413 21.3021C20.8797 19.1491 21.473 18.7911 21.744 18.5252C22.0867 18.1876 22.327 17.7529 22.4242 17.2927C22.5009 16.9142 22.5009 7.11562 22.4242 6.73718C22.327 6.27691 22.0867 5.84221 21.744 5.50468C21.473 5.23875 20.89 4.88588 17.3152 2.8249C15.0497 1.51569 13.0654 0.380362 12.9069 0.298536C12.329 0.00191879 11.7 -0.0747929 11.1425 0.0735168ZM16.2157 4.08808C18.5221 5.41774 20.4604 6.53773 20.5218 6.57864C20.5831 6.61955 20.6803 6.75252 20.7417 6.87015C20.8439 7.08494 20.8439 7.15142 20.8439 12.0149C20.8439 16.9142 20.8439 16.9449 20.7365 17.1648C20.6087 17.4256 21.0792 17.1392 15.7299 20.2282C12.0682 22.3454 12.017 22.371 11.7409 22.371C11.4647 22.371 11.4033 22.3403 7.31718 19.9776C5.04141 18.6581 3.09806 17.533 3.006 17.4717C2.91395 17.4103 2.79632 17.2671 2.74007 17.1495C2.63779 16.95 2.63779 16.8273 2.63779 12.0149C2.63779 7.20256 2.63779 7.07982 2.74007 6.88037C2.79632 6.76275 2.91395 6.61955 3.006 6.55819C3.21057 6.42522 11.3778 1.71514 11.4852 1.66911C11.5261 1.64866 11.6642 1.64354 11.792 1.65377C11.9915 1.664 12.6103 2.00664 16.2157 4.08808Z" />
<path d="M15.5765 8.77759C15.4895 8.79293 14.6815 9.56516 13.1831 11.0585L10.9226 13.3189L9.5009 11.9023C8.3042 10.7107 8.0485 10.4806 7.8695 10.4243C7.27115 10.2504 6.70349 10.8181 6.87737 11.4113C6.93362 11.6006 7.19956 11.8921 8.7389 13.4314C10.3089 15.0014 10.5646 15.2367 10.7334 15.2623C11.2039 15.3492 11.0863 15.4464 13.9041 12.6387C16.6555 9.88735 16.7016 9.83109 16.63 9.44753C16.5379 8.95147 16.1134 8.68042 15.5765 8.77759Z" />
</g>
<defs>
<clipPath id="clip0_2_44">
<rect width="24" height="24" />
</clipPath>
</defs>
</svg>
