<svg xmlns="http://www.w3.org/2000/svg" id="Layer_1" data-name="Layer 1" viewBox="0 0 600 600"><defs></defs><polyline class="cls-1" points="196.21 446.1 142.5 446.1 142.5 16.5 457.5 16.5 457.5 325.28 345.13 446.1 294.38 446.1"></polyline><line class="cls-1" x1="205.5" y1="104.79" x2="394.5" y2="104.79"></line><line class="cls-1" x1="205.5" y1="156.99" x2="394.5" y2="156.99"></line><line class="cls-1" x1="205.5" y1="209.18" x2="394.5" y2="209.18"></line><path class="cls-1" d="M314.57,514.71a68.79,68.79,0,0,1-137.58,0c0-38,68.79-174.26,68.79-174.26S314.57,476.72,314.57,514.71Z"></path><path class="cls-1" d="M209.68,547.5A48.61,48.61,0,0,1,197,514.71"></path><path class="cls-1" d="M294.57,514.71a48.85,48.85,0,0,1-48.79,48.79"></path><polyline class="cls-1" points="345.03 445.98 345.03 325.28 457.5 325.28"></polyline></svg>