<svg width="57" height="75" viewBox="0 0 57 75" xmlns="http://www.w3.org/2000/svg">
<path d="M26.4492 0.0879211C23.4023 0.483429 20.4873 1.56741 17.9531 3.26663C16.5469 4.20413 13.9541 6.79691 13.0166 8.20316C11.6689 10.21 10.7461 12.334 10.1602 14.7949C9.88183 15.9229 9.85254 16.626 9.79394 22.0752L9.7207 28.125H8.15332C7.21582 28.125 6.23437 28.2129 5.72168 28.3448C3.20215 29.0039 1.25391 30.9668 0.594727 33.501C0.272461 34.7608 0.272461 68.3643 0.594727 69.6241C1.25391 72.1582 3.20215 74.1211 5.72168 74.7803C6.4834 74.9707 9.2959 75 28.5 75C52.6113 75 51.1904 75.0586 52.9775 74.1065C54.6621 73.1983 56.1123 71.2207 56.4785 69.3018C56.5664 68.7891 56.625 62.4317 56.625 51.4307C56.625 32.8272 56.6543 33.5889 55.8047 31.9043C55.2773 30.8643 54.0029 29.5752 52.9775 29.0186C51.7471 28.3594 50.6484 28.125 48.8467 28.125H47.2793L47.2061 22.0752C47.1475 16.626 47.1182 15.9229 46.8398 14.7949C45.9316 11.0303 44.3496 8.20316 41.6982 5.55179C38.9883 2.84183 36.1318 1.2598 32.4551 0.424835C31.2393 0.146515 27.6064 -0.0585709 26.4492 0.0879211ZM30.9902 6.50394C32.3672 6.79691 34.1396 7.51468 35.2236 8.23245C38.0654 10.0928 40.1894 13.2422 40.79 16.4795C40.8926 16.9922 40.9512 19.4824 40.9512 22.7344V28.125H28.5H16.0488V22.6612C16.0488 16.7139 16.1074 16.2158 16.9131 14.1358C18.3779 10.3272 21.835 7.41214 25.9365 6.51859C27.1084 6.25491 29.8037 6.25491 30.9902 6.50394ZM30.6387 41.0303C32.8066 41.8506 34.2861 43.667 34.667 45.9815C35.0039 48.1055 34.0518 50.4346 32.3086 51.7676L31.5908 52.3096L31.5469 56.3965L31.5029 60.4688L31.0635 61.1133C29.6426 63.1348 26.5811 62.8418 25.6436 60.6153C25.4678 60.1612 25.4238 59.3555 25.4238 56.1914V52.3242L24.6768 51.7676C22.9482 50.4492 21.9961 48.1055 22.333 46.0108C22.8603 42.7002 25.7607 40.3858 29.0127 40.6787C29.4961 40.7227 30.2285 40.8838 30.6387 41.0303Z" />
</svg>
