<svg width="75" height="75" viewBox="0 0 75 75" xmlns="http://www.w3.org/2000/svg">
<path d="M34.7168 0.087883C29.751 0.527336 25.3711 1.74316 21.167 3.80859C16.9043 5.90331 14.458 7.66113 11.0596 11.0596C7.66113 14.458 5.88867 16.9043 3.80859 21.167C2.03613 24.7559 0.996094 28.1543 0.336914 32.373C-0.0146484 34.7314 -0.0146484 40.2686 0.336914 42.6269C0.996094 46.8457 2.03613 50.2441 3.80859 53.833C5.88867 58.0957 7.66113 60.542 11.0596 63.9404C14.458 67.3535 16.9189 69.1113 21.167 71.1914C31.5088 76.2744 43.4912 76.2744 53.833 71.1914C58.0811 69.1113 60.542 67.3535 63.9404 63.9404C67.3535 60.542 69.1113 58.0811 71.1914 53.833C76.2744 43.4912 76.2744 31.5088 71.1914 21.167C69.1113 16.9189 67.3535 14.458 63.9404 11.0596C60.542 7.66113 58.0957 5.88866 53.833 3.80859C50.2881 2.06542 46.8164 0.981438 42.7734 0.366203C41.2939 0.146477 36.1084 -0.0293045 34.7168 0.087883ZM41.2793 29.9853L41.2354 41.2353H37.5H33.7646L33.7207 29.9853L33.6914 18.75H37.5H41.3086L41.2793 29.9853ZM41.3086 52.5146V56.25H37.5H33.6914V52.5146V48.7793H37.5H41.3086V52.5146Z" />
</svg>
