<svg width="25" height="25" viewBox="0 0 25 25" fill="none" xmlns="http://www.w3.org/2000/svg">
<path d="M12.168 0.613077C12.0801 0.657022 11.9678 0.749796 11.9189 0.818155C11.8701 0.886515 11.0547 2.51737 10.1123 4.43632C9.16504 6.35526 8.38379 7.93241 8.37891 7.9373C8.37402 7.94706 6.61133 8.20585 4.46289 8.51835C1.85547 8.89433 0.50293 9.10917 0.390625 9.16776C0.195312 9.26542 0 9.59745 0 9.83183C0 9.90995 0.0488281 10.0564 0.112305 10.1541C0.170898 10.2469 1.47949 11.5555 3.0127 13.0545C4.55078 14.5486 5.81055 15.8035 5.81055 15.8328C5.81055 15.8621 5.5127 17.6394 5.14648 19.783L4.47754 23.6795L4.57031 23.909C4.63867 24.075 4.72168 24.1678 4.8584 24.2508C5.23438 24.4656 5.16602 24.4998 8.99902 22.4832L12.5 20.6375L16.0059 22.4881C19.375 24.2605 19.5166 24.3338 19.7754 24.3338C20.1172 24.3338 20.3223 24.2019 20.4395 23.8943L20.5225 23.6746L19.8535 19.7781C19.4873 17.6394 19.1895 15.8621 19.1895 15.8328C19.1895 15.8035 20.4492 14.5486 21.9873 13.0545C23.5205 11.5555 24.8291 10.2469 24.8877 10.1541C24.9512 10.0564 25 9.90995 25 9.83183C25 9.59745 24.8047 9.26542 24.6094 9.16776C24.4971 9.10917 23.1445 8.89433 20.5371 8.51835C18.3887 8.20585 16.626 7.94706 16.6211 7.9373C16.6162 7.93241 15.835 6.35526 14.8877 4.43632C13.9453 2.51737 13.1299 0.886515 13.0811 0.818155C12.8955 0.549601 12.4805 0.456827 12.168 0.613077Z" fill="#FFE600"/>
</svg>
