<svg width="311" height="57" viewBox="0 0 311 57" fill="none" xmlns="http://www.w3.org/2000/svg">
<path d="M74.8435 49.3358C73.7685 49.387 72.6718 49.3355 71.4904 49.1788C71.4761 49.1763 71.4352 49.1497 71.4168 49.1208C71.2155 48.7933 71.084 48.4443 71.0143 48.0538C70.5695 45.561 68.4085 43.3878 65.8764 42.8863C65.8224 42.8753 65.7673 42.868 65.704 42.8602L65.6451 42.8528C65.5891 42.8451 65.5301 42.8704 65.498 42.9134C65.463 42.9586 65.4558 43.0189 65.4794 43.0711L65.6407 43.4284C65.7836 43.7445 65.9235 44.0538 66.0613 44.364L66.0969 44.4453C66.4872 45.3272 66.8907 46.2392 67.425 47.0761C67.9071 47.8311 68.4844 48.3741 69.1783 48.7228C67.8104 48.3523 66.486 47.8215 65.2297 47.1395C65.2033 47.1252 65.1642 47.079 65.1489 47.0363L64.9473 46.3913C64.9409 46.3681 64.9241 46.3067 64.9293 46.2726C65.1192 45.008 64.904 43.6994 64.2718 42.2723C63.662 40.8958 62.6855 39.7415 61.3689 38.8412C61.2148 38.7358 61.0927 38.6943 61.0057 38.7176C60.9845 38.7233 60.9665 38.7326 60.9535 38.7444C60.9134 38.7793 60.8939 38.8314 60.9013 38.8837L60.9354 39.1184C60.9599 39.2928 60.9844 39.4639 61.011 39.6349C61.0585 39.9358 61.1029 40.237 61.1472 40.5385L61.1536 40.582C61.2644 41.3345 61.3787 42.1129 61.5347 42.881C61.717 43.7771 62.0089 44.8024 62.7929 45.6131C62.797 45.6171 62.8009 45.6215 62.805 45.6256C61.8272 44.9168 60.8949 44.122 60.0195 43.2496C59.9419 43.1719 59.9158 43.0925 59.8944 42.9729C59.8044 42.4671 59.93 42.0027 60.0791 41.5765C60.3667 40.7515 60.433 39.8498 60.294 38.6523C60.0995 36.9778 59.427 35.4259 58.2953 34.0393C58.2642 34.0011 58.2302 33.9653 58.1938 33.9268L58.1108 33.8386C58.0708 33.7955 58.0052 33.7775 57.9461 33.7962C57.8873 33.8153 57.8447 33.8666 57.8375 33.9266C57.78 34.4002 57.724 34.8566 57.6682 35.3097L57.6326 35.5992C57.5138 36.5662 57.3913 37.6907 57.443 38.8032C57.4798 39.5883 57.6617 40.3067 57.9863 40.9501C57.0886 39.805 56.2693 38.5603 55.5427 37.2367C55.5345 37.222 55.5223 37.1815 55.5315 37.0781C55.5765 36.5969 55.7658 36.1208 56.0645 35.7376C56.7184 34.8983 56.9528 33.9125 57.0958 33.0589C57.389 31.3131 57.1388 29.6089 56.3306 27.8487C56.3221 27.8302 56.311 27.8126 56.2984 27.7936L56.2882 27.7785C56.2635 27.7408 56.2235 27.7157 56.1777 27.7093C56.133 27.7035 56.0833 27.7201 56.0561 27.7437C56.0278 27.7634 55.9848 27.7933 55.9659 27.8463C55.8508 28.1277 55.7337 28.4121 55.6164 28.6963L55.5967 28.7442C55.3011 29.4618 54.9952 30.2035 54.7071 30.9379C54.3728 31.7869 54.1872 32.5748 54.1395 33.3468C54.1166 33.7196 54.1299 34.069 54.1803 34.3983C53.7215 33.2894 53.3215 32.1389 52.9858 30.9607C52.9057 30.6795 52.882 30.4453 53.0119 30.1471C53.1489 29.8296 53.3033 29.6314 53.5443 29.4634C54.535 28.7749 55.015 27.7523 55.3223 26.9384C55.8184 25.622 55.9387 24.2128 55.6899 22.63C55.6649 22.467 55.6319 22.3041 55.5966 22.1319L55.5888 22.0927C55.5716 22.009 55.5538 21.9217 55.536 21.829C55.5239 21.7676 55.476 21.7198 55.4138 21.7071C55.3537 21.695 55.2878 21.721 55.252 21.7718L55.1513 21.9165C55.1133 21.9708 55.0809 22.0173 55.0466 22.0633C54.8819 22.2846 54.7161 22.5044 54.5498 22.7248L54.5324 22.7477C54.1675 23.2314 53.7901 23.7316 53.4374 24.2382C52.7522 25.2181 52.381 26.1103 52.2692 27.0462C52.2506 27.2005 52.2386 27.3514 52.2331 27.4991C52.0123 26.1187 51.8837 24.7355 51.8501 23.3692C51.8457 23.2021 51.8544 23.1504 51.9251 23.1046C51.9694 23.0753 52.0064 23.0319 52.0291 22.9843C52.1866 22.6721 52.4721 22.5528 52.7575 22.4702C53.7092 22.1915 54.3426 21.5174 54.8364 20.8947C56.0475 19.3681 56.3257 16.2434 56.2999 16.1469C56.2864 16.0966 56.2484 16.0566 56.1976 16.0398C56.1477 16.0235 56.0892 16.0351 56.051 16.0657C55.7713 16.2817 55.4908 16.4943 55.2003 16.7145C54.5615 17.1998 53.9009 17.7014 53.2772 18.2234C52.6499 18.7497 52.2031 19.3485 51.9454 20.007C52.0419 18.823 52.2056 17.6436 52.4338 16.4912C52.462 16.3659 52.7014 16.1768 53.0895 16.0728C53.2157 16.039 53.3415 16.0195 53.4539 16.0163C54.4233 15.9873 55.2924 15.6145 56.161 14.8538C57.0496 14.0753 57.6779 13.0234 58.0818 11.6372C58.0895 11.6105 58.0978 11.5329 58.1018 11.4895C58.1072 11.4363 58.0856 11.3851 58.0443 11.3529C58.0058 11.3221 57.9545 11.3113 57.8968 11.3268L57.8956 11.3271L57.5402 11.4464C57.3224 11.5195 57.111 11.5906 56.8988 11.659L56.6722 11.732C55.9956 11.9497 55.2958 12.1747 54.6455 12.5235C53.9044 12.923 53.4006 13.3665 53.0694 13.9128C53.365 12.9067 53.7092 11.9326 54.0975 11.0026C54.1081 10.9779 54.1764 10.9261 54.2366 10.8988C54.2661 10.8831 54.374 10.8289 54.526 10.7881C54.7275 10.7341 54.9148 10.7272 55.0861 10.7682C56.1593 10.9714 57.2359 10.7194 58.2898 10.0167C59.1547 9.44194 59.8006 8.63182 60.2647 7.54056C60.2798 7.50534 60.292 7.46808 60.3019 7.42962C60.3131 7.38535 60.3032 7.34259 60.274 7.30898C60.1891 7.21071 59.9385 7.22101 59.8342 7.23004C59.5787 7.25342 59.2891 7.27963 59.0049 7.3165C58.8745 7.33287 58.7437 7.34851 58.6126 7.36393L58.5957 7.36578C58.1515 7.41819 57.6922 7.4723 57.2409 7.56951C56.4161 7.74658 55.7374 8.10383 55.2431 8.6245C55.529 8.10098 55.8293 7.59649 56.1422 7.1143C56.2413 6.96211 56.3572 6.80441 56.5185 6.6022C56.5309 6.58628 56.5668 6.56192 56.6145 6.54614C58.025 6.10934 59.0449 5.17167 59.7321 3.67995C60.1066 2.86781 60.3057 1.91666 60.341 0.772012L60.3423 0.732721C60.3465 0.612236 60.3489 0.545941 60.2514 0.495166C60.1761 0.455991 60.074 0.500904 59.8264 0.682974C59.6007 0.845393 59.3727 1.00545 59.1386 1.16979C58.6683 1.49987 58.1818 1.84124 57.721 2.20309C56.9511 2.80854 56.4079 3.55915 56.1067 4.43372C55.8772 5.09928 55.8786 5.7058 56.1096 6.28507C56.111 6.29184 56.1093 6.30937 56.1088 6.31148C55.4079 7.32697 54.7731 8.42885 54.1593 9.7023C54.5137 8.64806 54.6248 7.51376 54.499 6.26707C54.3722 5.0102 54.0974 3.93491 53.6591 2.97983C53.6315 2.92009 53.6001 2.86137 53.5604 2.78796L53.5003 2.67461C53.4738 2.62616 53.423 2.59485 53.3668 2.59269C53.3107 2.59145 53.2561 2.62051 53.2271 2.66725C53.1804 2.74159 53.134 2.81236 53.0887 2.88119L53.0568 2.9297C52.9407 3.10567 52.8311 3.2718 52.7397 3.45097C51.8518 5.19522 51.512 6.87729 51.7012 8.59338C51.7857 9.36922 52.0034 9.99071 52.3666 10.4928C52.4869 10.6592 52.6414 10.7951 52.7952 10.93C52.8655 10.9915 52.9359 11.0534 53.0026 11.1184C53.0514 11.1648 53.0581 11.1785 53.0572 11.1759C53.0954 11.4019 53.1312 11.6555 53.1697 11.9612C53.169 11.9653 53.1656 11.9755 53.1539 12.0039L53.1446 12.0277C52.7069 13.16 52.3364 14.3293 52.0392 15.5164C52.0582 14.6842 51.9762 13.6592 51.6593 12.5275C51.2791 11.1701 50.6356 10.0411 49.6914 9.07554C49.6542 9.03807 49.6007 9.02159 49.5353 9.03446C49.4887 9.04696 49.4499 9.08172 49.431 9.12841C49.4188 9.15983 49.406 9.18979 49.3938 9.21827C49.3666 9.28191 49.3413 9.34206 49.321 9.40452C49.0226 10.3277 48.9819 11.2684 48.9796 11.985C48.9765 13.2989 49.0983 14.3627 49.363 15.3329C49.5868 16.158 49.9096 16.7518 50.3791 17.2017C50.5251 17.3418 50.6918 17.4539 50.8594 17.5669C50.9483 17.6267 51.0396 17.6883 51.1249 17.7536C51.1845 17.799 51.2215 17.8516 51.2315 17.8837C51.2922 18.0773 51.3412 18.2775 51.3885 18.4711L51.4212 18.6049C51.4268 18.6279 51.4285 18.6556 51.4259 18.6779C51.2786 19.7632 51.191 20.8736 51.1636 21.9972C51.1137 21.6305 51.0471 21.2803 50.9638 20.9436C50.4913 19.0322 49.4444 17.4928 47.8514 16.3675L47.5194 16.1334C47.4809 16.1058 47.4325 16.0972 47.3867 16.1095L47.3621 16.1184C47.3108 16.1416 47.2754 16.1903 47.2701 16.2453C47.2633 16.3116 47.2561 16.3744 47.249 16.4351C47.2353 16.5525 47.2225 16.6637 47.2163 16.7749C47.1716 17.6421 47.2783 18.5478 47.5624 19.7109L47.568 19.7336C47.7741 20.58 48.0563 21.7395 48.7025 22.7483C49.3386 23.7414 50.0944 24.1269 50.2388 24.1938L50.2543 24.2015C50.6514 24.398 50.9299 24.6004 51.0182 24.7566C51.0538 24.8197 51.0897 24.8828 51.1284 24.9444C51.3001 25.2185 51.3191 25.5184 51.3396 25.8423C51.3504 26.0057 51.3613 26.1745 51.3942 26.3419C51.5262 27.0117 51.6512 27.6953 51.7719 28.3564L51.7833 28.4175C51.814 28.5861 51.8447 28.7548 51.8756 28.9234C51.3448 27.4788 50.4866 26.2664 49.3115 25.3057C48.5921 24.7181 47.8001 24.2626 46.9569 23.9516C46.9205 23.9381 46.8832 23.9274 46.8334 23.9137C46.8093 23.9074 46.7813 23.8996 46.7471 23.8894C46.6959 23.8751 46.6384 23.888 46.5986 23.9223C46.5578 23.9572 46.5379 24.0115 46.5464 24.0646C46.5619 24.1607 46.575 24.2543 46.5885 24.3515C46.6163 24.5504 46.6426 24.7383 46.6918 24.9254C47.2002 26.8649 48.1023 28.5683 49.3733 29.9875C49.7276 30.3836 50.1397 30.6979 50.5987 30.922C51.0533 31.1425 51.5021 31.2242 51.9697 31.1715C51.98 31.1705 52.0073 31.1783 52.0117 31.1801C52.0489 31.2217 52.0871 31.2632 52.1254 31.3048C52.2609 31.4517 52.4011 31.6036 52.4947 31.7685C52.5733 31.908 52.6172 32.0718 52.6637 32.2454C52.6808 32.3089 52.6979 32.3729 52.7168 32.4352C53.1619 33.9239 53.3586 34.4311 53.9614 35.7063C53.706 35.3476 53.4122 34.998 53.0682 34.678C51.6755 33.3834 50.1528 32.6594 48.4133 32.4649C48.3025 32.452 48.1944 32.4503 48.0689 32.4481L48.0439 32.4475C47.993 32.4466 47.939 32.4454 47.8812 32.4437C47.8286 32.441 47.7764 32.4665 47.7456 32.5092C47.715 32.5517 47.7075 32.6063 47.7264 32.6559C47.7665 32.7592 47.8022 32.8605 47.8367 32.9596C47.9122 33.1767 47.9834 33.3817 48.0934 33.5741C49.1193 35.3711 50.3727 36.6855 51.9249 37.5926C52.5886 37.9803 53.22 38.1354 53.8553 38.0668C54.0155 38.0492 54.2043 38.0018 54.5174 37.897L54.6077 37.867C54.6214 37.8625 54.6335 37.8584 54.6446 37.8555C54.6697 37.8487 54.6718 37.8482 54.696 37.8689L55.2771 38.3316C55.2847 38.3377 55.3 38.363 55.3106 38.3804L55.3224 38.3994C56.1613 39.7594 57.0921 41.0364 58.102 42.2144C57.7043 41.8961 57.2878 41.6198 56.8406 41.3748C54.7839 40.2483 51.9725 40.953 51.6587 41.0371L51.6197 41.0479L51.5962 41.059C51.5265 41.1065 51.5066 41.1987 51.5508 41.2686C51.5918 41.3347 51.6317 41.4019 51.678 41.481C51.7657 41.6294 51.8566 41.7826 51.9646 41.9254C52.4795 42.606 53.1791 43.2059 54.167 43.8141C54.8455 44.2308 55.5935 44.6372 56.4647 44.7875C57.4191 44.9529 58.2115 44.8433 58.9224 44.4466C59.043 44.3783 59.1808 44.2958 59.2871 44.1795C59.363 44.0973 59.3884 44.0925 59.4959 44.1343C59.6232 44.1837 59.7539 44.2188 59.8808 44.2528C59.9509 44.2716 60.0217 44.2907 60.0883 44.3109C60.0995 44.3161 60.1273 44.3422 60.1377 44.3519C61.1164 45.2679 62.1438 46.0877 63.2073 46.8017C62.6826 46.6041 62.1695 46.4969 61.6487 46.4735C60.0569 46.4009 58.5352 46.8721 57.1678 47.8603C56.9637 48.008 56.7498 48.2062 56.7356 48.2199C56.7068 48.2519 56.6926 48.2948 56.6963 48.3387C56.7007 48.3816 56.7228 48.4208 56.7569 48.4462C56.8208 48.4944 56.8832 48.5433 56.945 48.5919L56.9586 48.6025C57.0984 48.7129 57.2567 48.8377 57.4244 48.941C58.179 49.4047 59.016 49.6268 59.8082 49.7978C60.897 50.0307 61.9469 50.032 62.9291 49.802C62.9753 49.7913 63.0214 49.7799 63.0671 49.7677C63.963 49.5276 64.5844 49.0493 64.964 48.3099C64.9694 48.3035 64.9904 48.2884 65.0032 48.2848C65.2131 48.2442 65.4167 48.2212 65.5695 48.206C65.5936 48.2038 65.6257 48.2098 65.6477 48.2209C66.7587 48.7651 67.8973 49.199 69.0509 49.5188C68.8881 49.5152 68.7222 49.5185 68.5548 49.5304C67.4359 49.614 66.3832 50.0317 65.3152 50.8185C64.5949 51.3504 63.9707 52.0154 63.4068 52.8516C63.3603 52.9203 63.376 53.0127 63.4426 53.0618C63.7902 53.3183 64.1775 53.4103 64.5107 53.4662C65.3235 53.6037 66.1976 53.5969 67.1839 53.4457C67.1868 53.4451 67.5017 53.3889 67.9334 53.2732C68.245 53.1897 68.5312 53.0983 68.7838 53.0016C69.0252 52.9094 69.2617 52.8011 69.4868 52.6798C70.5197 52.1192 71.1219 51.3743 71.324 50.4143C71.3297 50.4049 71.3576 50.3772 71.3967 50.356C71.5828 50.2539 71.7529 50.1715 71.9174 50.1034C71.9559 50.0863 72.0088 50.0836 72.0786 50.0917C72.9185 50.1768 73.7898 50.2018 74.6667 50.1661C74.6791 50.1657 74.6915 50.1639 74.7036 50.1607C74.7592 50.1458 74.8023 50.1019 74.8161 50.0455C74.8563 49.8796 74.9153 49.7149 74.9914 49.5561C75.0152 49.5061 75.011 49.4492 74.9805 49.4037C74.9511 49.3595 74.8998 49.3338 74.8435 49.3358Z" fill="white"/>
<path d="M236.156 49.2799C237.232 49.331 238.328 49.2796 239.51 49.1229C239.524 49.1204 239.565 49.0938 239.583 49.0649C239.784 48.7374 239.916 48.3884 239.986 47.9979C240.43 45.5051 242.592 43.3319 245.124 42.8304C245.178 42.8193 245.233 42.8121 245.296 42.8043L245.355 42.7969C245.411 42.7892 245.47 42.8145 245.502 42.8575C245.537 42.9027 245.544 42.963 245.521 43.0152L245.359 43.3725C245.216 43.6886 245.076 43.9979 244.939 44.3081L244.903 44.3894C244.513 45.2713 244.109 46.1833 243.575 47.0202C243.093 47.7752 242.516 48.3182 241.822 48.6669C243.19 48.2964 244.514 47.7656 245.77 47.0836C245.797 47.0693 245.836 47.0231 245.851 46.9804L246.053 46.3354C246.059 46.3122 246.076 46.2508 246.071 46.2167C245.881 44.9521 246.096 43.6435 246.728 42.2164C247.338 40.8399 248.315 39.6856 249.631 38.7853C249.785 38.6799 249.907 38.6384 249.994 38.6617C250.016 38.6674 250.034 38.6767 250.047 38.6884C250.087 38.7234 250.106 38.7755 250.099 38.8278L250.065 39.0625C250.04 39.2369 250.016 39.408 249.989 39.5789C249.941 39.8799 249.897 40.1811 249.853 40.4825L249.846 40.5261C249.736 41.2786 249.621 42.057 249.465 42.8251C249.283 43.7211 248.991 44.7465 248.207 45.5572C248.203 45.5612 248.199 45.5656 248.195 45.5697C249.173 44.8609 250.105 44.0661 250.981 43.1936C251.058 43.116 251.084 43.0366 251.106 42.917C251.196 42.4112 251.07 41.9468 250.921 41.5206C250.633 40.6956 250.567 39.7938 250.706 38.5964C250.9 36.9219 251.573 35.37 252.705 33.9834C252.736 33.9452 252.77 33.9093 252.806 33.8709L252.889 33.7827C252.929 33.7395 252.995 33.7216 253.054 33.7403C253.113 33.7594 253.155 33.8107 253.162 33.8707C253.22 34.3443 253.276 34.8007 253.332 35.2538L253.367 35.5433C253.486 36.5103 253.609 37.6348 253.557 38.7473C253.52 39.5324 253.338 40.2508 253.014 40.8942C253.911 39.7491 254.731 38.5044 255.457 37.1808C255.465 37.1661 255.478 37.1256 255.469 37.0222C255.423 36.541 255.234 36.0649 254.935 35.6817C254.282 34.8424 254.047 33.8566 253.904 33.003C253.611 31.2572 253.861 29.553 254.669 27.7927C254.678 27.7743 254.689 27.7567 254.702 27.7377L254.712 27.7225C254.736 27.6849 254.777 27.6598 254.822 27.6534C254.867 27.6476 254.917 27.6642 254.944 27.6878C254.972 27.7075 255.015 27.7374 255.034 27.7904C255.149 28.0718 255.266 28.3562 255.384 28.6404L255.403 28.6883C255.699 29.4059 256.005 30.1476 256.293 30.882C256.627 31.731 256.813 32.5189 256.861 33.2909C256.883 33.6637 256.87 34.0131 256.82 34.3424C257.279 33.2335 257.678 32.083 258.014 30.9048C258.094 30.6236 258.118 30.3894 257.988 30.0912C257.851 29.7737 257.697 29.5755 257.456 29.4075C256.465 28.719 255.985 27.6964 255.678 26.8825C255.182 25.5661 255.061 24.1569 255.31 22.5741C255.335 22.4111 255.368 22.2482 255.403 22.076L255.411 22.0368C255.428 21.953 255.446 21.8658 255.464 21.7731C255.476 21.7117 255.524 21.6639 255.586 21.6512C255.646 21.6391 255.712 21.6651 255.748 21.7159L255.849 21.8606C255.887 21.9149 255.919 21.9614 255.953 22.0074C256.118 22.2287 256.284 22.4485 256.45 22.6689L256.468 22.6918C256.832 23.1755 257.21 23.6757 257.563 24.1823C258.248 25.1622 258.619 26.0544 258.731 26.9903C258.749 27.1446 258.761 27.2955 258.767 27.4432C258.988 26.0628 259.116 24.6796 259.15 23.3133C259.154 23.1462 259.146 23.0944 259.075 23.0487C259.031 23.0194 258.994 22.976 258.971 22.9284C258.813 22.6162 258.528 22.4969 258.242 22.4143C257.291 22.1356 256.657 21.4615 256.164 20.8388C254.953 19.3122 254.674 16.1875 254.7 16.091C254.714 16.0407 254.752 16.0006 254.802 15.9839C254.852 15.9676 254.911 15.9792 254.949 16.0098C255.229 16.2258 255.509 16.4384 255.8 16.6586C256.439 17.1439 257.099 17.6455 257.723 18.1675C258.35 18.6938 258.797 19.2926 259.055 19.9511C258.958 18.7671 258.794 17.5877 258.566 16.4353C258.538 16.31 258.299 16.1209 257.911 16.0169C257.784 15.9831 257.658 15.9636 257.546 15.9604C256.577 15.9314 255.708 15.5586 254.839 14.7979C253.95 14.0194 253.322 12.9675 252.918 11.5813C252.911 11.5546 252.902 11.4769 252.898 11.4336C252.893 11.3804 252.914 11.3292 252.956 11.297C252.994 11.2662 253.046 11.2554 253.103 11.2709L253.104 11.2712L253.46 11.3904C253.678 11.4636 253.889 11.5346 254.101 11.6031L254.328 11.6761C255.004 11.8938 255.704 12.1188 256.354 12.4676C257.096 12.8671 257.599 13.3106 257.931 13.8568C257.635 12.8508 257.291 11.8767 256.902 10.9467C256.892 10.922 256.824 10.8701 256.763 10.8429C256.734 10.8272 256.626 10.7729 256.474 10.7322C256.272 10.6782 256.085 10.6713 255.914 10.7123C254.841 10.9155 253.764 10.6635 252.71 9.96076C251.845 9.38603 251.199 8.57591 250.735 7.48465C250.72 7.44943 250.708 7.41217 250.698 7.37372C250.687 7.32944 250.697 7.28669 250.726 7.25307C250.811 7.1548 251.062 7.1651 251.166 7.17413C251.421 7.19751 251.711 7.22372 251.995 7.26059C252.126 7.27696 252.256 7.2926 252.387 7.30802L252.404 7.30988C252.849 7.36228 253.308 7.41639 253.759 7.5136C254.584 7.69067 255.263 8.04792 255.757 8.56859C255.471 8.04507 255.171 7.54059 254.858 7.05839C254.759 6.9062 254.643 6.7485 254.481 6.54629C254.469 6.53037 254.433 6.50601 254.385 6.49023C252.975 6.05343 251.955 5.11576 251.268 3.62404C250.893 2.8119 250.694 1.86075 250.659 0.716103L250.658 0.676813C250.654 0.556327 250.651 0.490032 250.749 0.439258C250.824 0.400082 250.926 0.444996 251.174 0.627065C251.399 0.789484 251.627 0.94954 251.861 1.11388C252.332 1.44396 252.818 1.78533 253.279 2.14718C254.049 2.75263 254.592 3.50324 254.893 4.37781C255.123 5.04337 255.121 5.64989 254.89 6.22916C254.889 6.23593 254.891 6.25346 254.891 6.25557C255.592 7.27106 256.227 8.37295 256.841 9.64639C256.486 8.59215 256.375 7.45785 256.501 6.21116C256.628 4.9543 256.903 3.879 257.341 2.92392C257.369 2.86418 257.4 2.80546 257.44 2.73205L257.5 2.6187C257.526 2.57025 257.577 2.53894 257.633 2.53678C257.689 2.53554 257.744 2.5646 257.773 2.61134C257.82 2.68568 257.866 2.75645 257.911 2.82528L257.943 2.87379C258.059 3.04977 258.169 3.21589 258.26 3.39506C259.148 5.13931 259.488 6.82138 259.299 8.53747C259.214 9.31332 258.997 9.9348 258.633 10.4369C258.513 10.6033 258.359 10.7392 258.205 10.8741C258.135 10.9356 258.064 10.9975 257.997 11.0625C257.949 11.1089 257.942 11.1226 257.943 11.12C257.905 11.346 257.869 11.5996 257.83 11.9052C257.831 11.9094 257.834 11.9196 257.846 11.9479L257.855 11.9718C258.293 13.1041 258.664 14.2734 258.961 15.4605C258.942 14.6283 259.024 13.6033 259.341 12.4716C259.721 11.1142 260.364 9.9852 261.309 9.01963C261.346 8.98217 261.399 8.96568 261.465 8.97855C261.511 8.99105 261.55 9.02581 261.569 9.0725C261.581 9.10392 261.594 9.13388 261.606 9.16236C261.633 9.22601 261.659 9.28615 261.679 9.34861C261.977 10.2718 262.018 11.2125 262.02 11.9291C262.024 13.243 261.902 14.3067 261.637 15.277C261.413 16.1021 261.09 16.6959 260.621 17.1458C260.475 17.2859 260.308 17.398 260.141 17.5109C260.052 17.5708 259.96 17.6324 259.875 17.6977C259.815 17.7431 259.778 17.7957 259.769 17.8278C259.708 18.0214 259.659 18.2216 259.611 18.4152L259.579 18.549C259.573 18.572 259.571 18.5997 259.574 18.622C259.721 19.7073 259.809 20.8177 259.836 21.9413C259.886 21.5746 259.953 21.2244 260.036 20.8877C260.509 18.9763 261.556 17.4369 263.149 16.3116L263.481 16.0775C263.519 16.0499 263.568 16.0413 263.613 16.0536L263.638 16.0625C263.689 16.0857 263.725 16.1344 263.73 16.1894C263.737 16.2557 263.744 16.3185 263.751 16.3792C263.765 16.4966 263.777 16.6078 263.784 16.719C263.828 17.5862 263.722 18.4919 263.438 19.655L263.432 19.6777C263.226 20.5241 262.944 21.6836 262.297 22.6924C261.661 23.6855 260.906 24.071 260.761 24.1379L260.746 24.1456C260.349 24.3421 260.07 24.5445 259.982 24.7007C259.946 24.7638 259.91 24.8269 259.872 24.8885C259.7 25.1626 259.681 25.4625 259.66 25.7864C259.65 25.9498 259.639 26.1186 259.606 26.286C259.474 26.9558 259.349 27.6394 259.228 28.3004L259.217 28.3616C259.186 28.5302 259.155 28.6988 259.124 28.8675C259.655 27.4229 260.513 26.2105 261.688 25.2498C262.408 24.6621 263.2 24.2067 264.043 23.8957C264.079 23.8822 264.117 23.8715 264.167 23.8578C264.191 23.8515 264.219 23.8437 264.253 23.8335C264.304 23.8192 264.362 23.8321 264.401 23.8663C264.442 23.9013 264.462 23.9556 264.454 24.0086C264.438 24.1048 264.425 24.1984 264.412 24.2956C264.384 24.4945 264.357 24.6824 264.308 24.8695C263.8 26.809 262.898 28.5124 261.627 29.9316C261.272 30.3277 260.86 30.642 260.401 30.8661C259.947 31.0866 259.498 31.1683 259.03 31.1156C259.02 31.1146 258.993 31.1224 258.988 31.1242C258.951 31.1658 258.913 31.2073 258.875 31.2489C258.739 31.3958 258.599 31.5477 258.505 31.7126C258.427 31.8521 258.383 32.0159 258.336 32.1894C258.319 32.253 258.302 32.317 258.283 32.3793C257.838 33.868 257.641 34.3752 257.039 35.6504C257.294 35.2917 257.588 34.942 257.932 34.6221C259.325 33.3275 260.847 32.6035 262.587 32.409C262.697 32.3961 262.806 32.3944 262.931 32.3922L262.956 32.3916C263.007 32.3907 263.061 32.3895 263.119 32.3878C263.171 32.3851 263.224 32.4106 263.254 32.4533C263.285 32.4958 263.292 32.5504 263.274 32.6C263.233 32.7033 263.198 32.8046 263.163 32.9037C263.088 33.1208 263.017 33.3258 262.907 33.5182C261.881 35.3152 260.627 36.6296 259.075 37.5367C258.411 37.9244 257.78 38.0795 257.145 38.0109C256.985 37.9933 256.796 37.9459 256.483 37.8411L256.392 37.8111C256.379 37.8066 256.367 37.8025 256.355 37.7995C256.33 37.7928 256.328 37.7923 256.304 37.813L255.723 38.2757C255.715 38.2818 255.7 38.3071 255.689 38.3245L255.678 38.3435C254.839 39.7035 253.908 40.9804 252.898 42.1585C253.296 41.8402 253.712 41.5639 254.159 41.3189C256.216 40.1924 259.028 40.8971 259.341 40.9812L259.38 40.992L259.404 41.0031C259.473 41.0506 259.493 41.1428 259.449 41.2127C259.408 41.2788 259.368 41.346 259.322 41.4251C259.234 41.5735 259.143 41.7267 259.035 41.8695C258.521 42.5501 257.821 43.15 256.833 43.7582C256.154 44.1749 255.407 44.5813 254.535 44.7316C253.581 44.897 252.789 44.7874 252.078 44.3907C251.957 44.3224 251.819 44.2399 251.713 44.1236C251.637 44.0414 251.612 44.0366 251.504 44.0784C251.377 44.1278 251.246 44.1629 251.119 44.1969C251.049 44.2157 250.978 44.2347 250.912 44.255C250.901 44.2601 250.873 44.2863 250.862 44.296C249.884 45.212 248.856 46.0318 247.793 46.7458C248.317 46.5482 248.831 46.441 249.351 46.4176C250.943 46.345 252.465 46.8162 253.832 47.8044C254.036 47.9521 254.25 48.1503 254.264 48.164C254.293 48.196 254.307 48.2389 254.304 48.2828C254.299 48.3257 254.277 48.3649 254.243 48.3903C254.179 48.4384 254.117 48.4874 254.055 48.536L254.041 48.5466C253.902 48.657 253.743 48.7818 253.576 48.8851C252.821 49.3488 251.984 49.5709 251.192 49.7419C250.103 49.9748 249.053 49.9761 248.071 49.7461C248.025 49.7354 247.979 49.724 247.933 49.7118C247.037 49.4717 246.416 48.9934 246.036 48.254C246.031 48.2476 246.01 48.2325 245.997 48.2289C245.787 48.1882 245.583 48.1653 245.431 48.1501C245.406 48.1479 245.374 48.1539 245.352 48.165C244.241 48.7092 243.103 49.1431 241.949 49.4629C242.112 49.4593 242.278 49.4626 242.445 49.4745C243.564 49.5581 244.617 49.9758 245.685 50.7626C246.405 51.2944 247.029 51.9595 247.593 52.7957C247.64 52.8644 247.624 52.9568 247.557 53.0059C247.21 53.2624 246.822 53.3544 246.489 53.4103C245.676 53.5478 244.802 53.541 243.816 53.3898C243.813 53.3892 243.498 53.333 243.067 53.2173C242.755 53.1338 242.469 53.0423 242.216 52.9457C241.975 52.8535 241.738 52.7452 241.513 52.6239C240.48 52.0633 239.878 51.3184 239.676 50.3584C239.67 50.349 239.642 50.3213 239.603 50.3001C239.417 50.198 239.247 50.1156 239.083 50.0475C239.044 50.0304 238.991 50.0277 238.921 50.0358C238.082 50.1209 237.21 50.1459 236.333 50.1102C236.321 50.1098 236.308 50.108 236.296 50.1047C236.241 50.0899 236.198 50.046 236.184 49.9896C236.144 49.8236 236.085 49.659 236.009 49.5002C235.985 49.4502 235.989 49.3933 236.02 49.3478C236.049 49.3036 236.1 49.2779 236.156 49.2799Z" fill="white"/>
<g clip-path="url(#clip0_23_611)">
<path d="M221.221 8.50602C221.147 8.54293 221.053 8.62086 221.012 8.67829C220.971 8.73571 220.286 10.1056 219.494 11.7175C218.699 13.3295 218.042 14.6543 218.038 14.6584C218.034 14.6666 216.554 14.884 214.749 15.1465C212.559 15.4623 211.422 15.6427 211.328 15.692C211.164 15.774 211 16.0529 211 16.2498C211 16.3154 211.041 16.4384 211.094 16.5205C211.144 16.5984 212.243 17.6976 213.531 18.9568C214.823 20.2119 215.881 21.266 215.881 21.2906C215.881 21.3152 215.631 22.8082 215.323 24.6088L214.761 27.8818L214.839 28.0746C214.896 28.214 214.966 28.292 215.081 28.3617C215.397 28.5422 215.339 28.5709 218.559 26.8769L221.5 25.3265L224.445 26.881C227.275 28.3699 227.394 28.4314 227.611 28.4314C227.898 28.4314 228.071 28.3207 228.169 28.0623L228.239 27.8777L227.677 24.6047C227.369 22.8082 227.119 21.3152 227.119 21.2906C227.119 21.266 228.177 20.2119 229.469 18.9568C230.757 17.6976 231.856 16.5984 231.906 16.5205C231.959 16.4384 232 16.3154 232 16.2498C232 16.0529 231.836 15.774 231.672 15.692C231.578 15.6427 230.441 15.4623 228.251 15.1465C226.446 14.884 224.966 14.6666 224.962 14.6584C224.958 14.6543 224.301 13.3295 223.506 11.7175C222.714 10.1056 222.029 8.73571 221.988 8.67829C221.832 8.4527 221.484 8.37477 221.221 8.50602Z" fill="#FFE600"/>
</g>
<g clip-path="url(#clip1_23_611)">
<path d="M189.195 6.55955C189.114 6.59998 189.01 6.68533 188.965 6.74822C188.921 6.81111 188.17 8.3115 187.303 10.0769C186.432 11.8424 185.713 13.2933 185.709 13.2978C185.704 13.3068 184.082 13.5449 182.106 13.8324C179.707 14.1783 178.463 14.376 178.359 14.4299C178.18 14.5197 178 14.8252 178 15.0408C178 15.1127 178.045 15.2474 178.103 15.3373C178.157 15.4226 179.361 16.6265 180.772 18.0056C182.187 19.3803 183.346 20.5347 183.346 20.5617C183.346 20.5887 183.072 22.2238 182.735 24.1959L182.119 27.7806L182.205 27.9918C182.268 28.1445 182.344 28.2299 182.47 28.3062C182.816 28.5039 182.753 28.5353 186.279 26.6801L189.5 24.982L192.725 26.6845C195.825 28.3152 195.955 28.3826 196.193 28.3826C196.508 28.3826 196.696 28.2613 196.804 27.9783L196.881 27.7761L196.265 24.1914C195.928 22.2238 195.654 20.5887 195.654 20.5617C195.654 20.5347 196.813 19.3803 198.228 18.0056C199.639 16.6265 200.843 15.4226 200.897 15.3373C200.955 15.2474 201 15.1127 201 15.0408C201 14.8252 200.82 14.5197 200.641 14.4299C200.537 14.376 199.293 14.1783 196.894 13.8324C194.918 13.5449 193.296 13.3068 193.291 13.2978C193.287 13.2933 192.568 11.8424 191.697 10.0769C190.83 8.3115 190.079 6.81111 190.035 6.74822C189.864 6.50115 189.482 6.4158 189.195 6.55955Z" fill="#FFE600"/>
</g>
<g clip-path="url(#clip2_23_611)">
<path d="M155.168 4.61308C155.08 4.65702 154.968 4.7498 154.919 4.81816C154.87 4.88651 154.055 6.51737 153.112 8.43632C152.165 10.3553 151.384 11.9324 151.379 11.9373C151.374 11.9471 149.611 12.2059 147.463 12.5184C144.855 12.8943 143.503 13.1092 143.391 13.1678C143.195 13.2654 143 13.5975 143 13.8318C143 13.91 143.049 14.0564 143.112 14.1541C143.171 14.2469 144.479 15.5555 146.013 17.0545C147.551 18.5486 148.811 19.8035 148.811 19.8328C148.811 19.8621 148.513 21.6394 148.146 23.783L147.478 27.6795L147.57 27.909C147.639 28.075 147.722 28.1678 147.858 28.2508C148.234 28.4656 148.166 28.4998 151.999 26.4832L155.5 24.6375L159.006 26.4881C162.375 28.2605 162.517 28.3338 162.775 28.3338C163.117 28.3338 163.322 28.2019 163.439 27.8943L163.522 27.6746L162.854 23.7781C162.487 21.6394 162.189 19.8621 162.189 19.8328C162.189 19.8035 163.449 18.5486 164.987 17.0545C166.521 15.5555 167.829 14.2469 167.888 14.1541C167.951 14.0564 168 13.91 168 13.8318C168 13.5975 167.805 13.2654 167.609 13.1678C167.497 13.1092 166.145 12.8943 163.537 12.5184C161.389 12.2059 159.626 11.9471 159.621 11.9373C159.616 11.9324 158.835 10.3553 157.888 8.43632C156.945 6.51737 156.13 4.88651 156.081 4.81816C155.896 4.5496 155.48 4.45683 155.168 4.61308Z" fill="#FFE600"/>
</g>
<g clip-path="url(#clip3_23_611)">
<path d="M121.195 6.55955C121.114 6.59998 121.01 6.68533 120.965 6.74822C120.921 6.81111 120.17 8.3115 119.303 10.0769C118.432 11.8424 117.713 13.2933 117.709 13.2978C117.704 13.3068 116.082 13.5449 114.106 13.8324C111.707 14.1783 110.463 14.376 110.359 14.4299C110.18 14.5197 110 14.8252 110 15.0408C110 15.1127 110.045 15.2474 110.103 15.3373C110.157 15.4226 111.361 16.6265 112.772 18.0056C114.187 19.3803 115.346 20.5347 115.346 20.5617C115.346 20.5887 115.072 22.2238 114.735 24.1959L114.119 27.7806L114.205 27.9918C114.268 28.1445 114.344 28.2299 114.47 28.3062C114.816 28.5039 114.753 28.5353 118.279 26.6801L121.5 24.982L124.725 26.6845C127.825 28.3152 127.955 28.3826 128.193 28.3826C128.508 28.3826 128.696 28.2613 128.804 27.9783L128.881 27.7761L128.265 24.1914C127.928 22.2238 127.654 20.5887 127.654 20.5617C127.654 20.5347 128.813 19.3803 130.228 18.0056C131.639 16.6265 132.843 15.4226 132.897 15.3373C132.955 15.2474 133 15.1127 133 15.0408C133 14.8252 132.82 14.5197 132.641 14.4299C132.537 14.376 131.293 14.1783 128.894 13.8324C126.918 13.5449 125.296 13.3068 125.291 13.2978C125.287 13.2933 124.568 11.8424 123.697 10.0769C122.83 8.3115 122.079 6.81111 122.035 6.74822C121.864 6.50115 121.482 6.4158 121.195 6.55955Z" fill="#FFE600"/>
</g>
<g clip-path="url(#clip4_23_611)">
<path d="M89.2211 8.50602C89.1473 8.54293 89.0529 8.62086 89.0119 8.67829C88.9709 8.73571 88.2859 10.1056 87.4943 11.7175C86.6986 13.3295 86.0424 14.6543 86.0383 14.6584C86.0342 14.6666 84.5535 14.884 82.7488 15.1465C80.5586 15.4623 79.4225 15.6427 79.3281 15.692C79.1641 15.774 79 16.0529 79 16.2498C79 16.3154 79.041 16.4384 79.0943 16.5205C79.1436 16.5984 80.2428 17.6976 81.5307 18.9568C82.8227 20.2119 83.8809 21.266 83.8809 21.2906C83.8809 21.3152 83.6307 22.8082 83.323 24.6088L82.7611 27.8818L82.8391 28.0746C82.8965 28.214 82.9662 28.292 83.0811 28.3617C83.3969 28.5422 83.3395 28.5709 86.5592 26.8769L89.5 25.3265L92.4449 26.881C95.275 28.3699 95.3939 28.4314 95.6113 28.4314C95.8984 28.4314 96.0707 28.3207 96.1691 28.0623L96.2389 27.8777L95.677 24.6047C95.3693 22.8082 95.1191 21.3152 95.1191 21.2906C95.1191 21.266 96.1773 20.2119 97.4693 18.9568C98.7572 17.6976 99.8564 16.5984 99.9057 16.5205C99.959 16.4384 100 16.3154 100 16.2498C100 16.0529 99.8359 15.774 99.6719 15.692C99.5775 15.6427 98.4414 15.4623 96.2512 15.1465C94.4465 14.884 92.9658 14.6666 92.9617 14.6584C92.9576 14.6543 92.3014 13.3295 91.5057 11.7175C90.7141 10.1056 90.0291 8.73571 89.9881 8.67829C89.8322 8.4527 89.4836 8.37477 89.2211 8.50602Z" fill="#FFE600"/>
</g>
<path d="M101.732 49.7081H100.003V51.9441H98.7424V49.7081H93.6854V48.7981L98.3394 42.8441H99.7434L95.2844 48.5901H98.7814V46.6141H100.003V48.5901H101.732V49.7081ZM103.624 52.0221C103.381 52.0221 103.173 51.9398 103 51.7751C102.826 51.6018 102.74 51.3851 102.74 51.1251C102.74 50.8738 102.826 50.6658 103 50.5011C103.173 50.3278 103.381 50.2411 103.624 50.2411C103.866 50.2411 104.07 50.3234 104.235 50.4881C104.399 50.6528 104.482 50.8651 104.482 51.1251C104.482 51.3851 104.395 51.6018 104.222 51.7751C104.057 51.9398 103.858 52.0221 103.624 52.0221ZM111.402 47.1731C111.922 47.3724 112.321 47.6584 112.598 48.0311C112.875 48.4038 113.014 48.8501 113.014 49.3701C113.014 49.9161 112.867 50.3928 112.572 50.8001C112.277 51.1988 111.857 51.5064 111.311 51.7231C110.765 51.9398 110.124 52.0481 109.387 52.0481C108.659 52.0481 108.022 51.9398 107.476 51.7231C106.939 51.5064 106.523 51.1988 106.228 50.8001C105.933 50.3928 105.786 49.9161 105.786 49.3701C105.786 48.8501 105.92 48.4038 106.189 48.0311C106.466 47.6584 106.865 47.3724 107.385 47.1731C106.969 46.9738 106.653 46.7094 106.436 46.3801C106.219 46.0508 106.111 45.6608 106.111 45.2101C106.111 44.7074 106.245 44.2698 106.514 43.8971C106.791 43.5244 107.177 43.2384 107.671 43.0391C108.165 42.8398 108.737 42.7401 109.387 42.7401C110.046 42.7401 110.622 42.8398 111.116 43.0391C111.619 43.2384 112.004 43.5244 112.273 43.8971C112.55 44.2698 112.689 44.7074 112.689 45.2101C112.689 45.6521 112.576 46.0421 112.351 46.3801C112.134 46.7094 111.818 46.9738 111.402 47.1731ZM109.387 43.7931C108.772 43.7931 108.286 43.9274 107.931 44.1961C107.576 44.4561 107.398 44.8114 107.398 45.2621C107.398 45.7128 107.571 46.0681 107.918 46.3281C108.273 46.5881 108.763 46.7181 109.387 46.7181C110.02 46.7181 110.514 46.5881 110.869 46.3281C111.233 46.0681 111.415 45.7128 111.415 45.2621C111.415 44.8114 111.229 44.4561 110.856 44.1961C110.492 43.9274 110.002 43.7931 109.387 43.7931ZM109.387 50.9951C110.106 50.9951 110.674 50.8478 111.09 50.5531C111.506 50.2498 111.714 49.8424 111.714 49.3311C111.714 48.8284 111.506 48.4341 111.09 48.1481C110.674 47.8534 110.106 47.7061 109.387 47.7061C108.668 47.7061 108.104 47.8534 107.697 48.1481C107.29 48.4341 107.086 48.8284 107.086 49.3311C107.086 49.8424 107.29 50.2498 107.697 50.5531C108.104 50.8478 108.668 50.9951 109.387 50.9951ZM116.804 46.4711C118.104 46.4711 119.057 46.7181 119.664 47.2121C120.279 47.6974 120.587 48.3648 120.587 49.2141C120.587 49.7514 120.457 50.2368 120.197 50.6701C119.946 51.0948 119.56 51.4328 119.04 51.6841C118.529 51.9268 117.896 52.0481 117.142 52.0481C116.501 52.0481 115.881 51.9528 115.283 51.7621C114.685 51.5628 114.191 51.2898 113.801 50.9431L114.399 49.9161C114.711 50.2108 115.11 50.4491 115.595 50.6311C116.08 50.8044 116.592 50.8911 117.129 50.8911C117.814 50.8911 118.342 50.7481 118.715 50.4621C119.096 50.1674 119.287 49.7688 119.287 49.2661C119.287 48.7201 119.079 48.3084 118.663 48.0311C118.247 47.7451 117.536 47.6021 116.531 47.6021H114.464L114.945 42.8441H120.08V43.9751H116.037L115.79 46.4711H116.804ZM132.206 47.3421H133.454V50.8911C133.003 51.2638 132.479 51.5498 131.881 51.7491C131.283 51.9484 130.659 52.0481 130.009 52.0481C129.09 52.0481 128.263 51.8488 127.526 51.4501C126.789 51.0428 126.209 50.4881 125.784 49.7861C125.368 49.0754 125.16 48.2781 125.16 47.3941C125.16 46.5101 125.368 45.7128 125.784 45.0021C126.209 44.2914 126.789 43.7368 127.526 43.3381C128.271 42.9394 129.108 42.7401 130.035 42.7401C130.763 42.7401 131.422 42.8614 132.011 43.1041C132.609 43.3381 133.116 43.6848 133.532 44.1441L132.726 44.9501C131.998 44.2481 131.118 43.8971 130.087 43.8971C129.394 43.8971 128.77 44.0488 128.215 44.3521C127.669 44.6468 127.24 45.0628 126.928 45.6001C126.616 46.1288 126.46 46.7268 126.46 47.3941C126.46 48.0528 126.616 48.6508 126.928 49.1881C127.24 49.7168 127.669 50.1328 128.215 50.4361C128.77 50.7394 129.389 50.8911 130.074 50.8911C130.889 50.8911 131.599 50.6961 132.206 50.3061V47.3421ZM135.761 42.2981H137.009V51.9441H135.761V42.2981ZM142.343 52.0221C141.658 52.0221 141.043 51.8704 140.497 51.5671C139.951 51.2638 139.522 50.8478 139.21 50.3191C138.907 49.7818 138.755 49.1751 138.755 48.4991C138.755 47.8231 138.907 47.2208 139.21 46.6921C139.522 46.1548 139.951 45.7388 140.497 45.4441C141.043 45.1408 141.658 44.9891 142.343 44.9891C143.028 44.9891 143.639 45.1408 144.176 45.4441C144.722 45.7388 145.147 46.1548 145.45 46.6921C145.762 47.2208 145.918 47.8231 145.918 48.4991C145.918 49.1751 145.762 49.7818 145.45 50.3191C145.147 50.8478 144.722 51.2638 144.176 51.5671C143.639 51.8704 143.028 52.0221 142.343 52.0221ZM142.343 50.9301C142.785 50.9301 143.179 50.8304 143.526 50.6311C143.881 50.4231 144.159 50.1371 144.358 49.7731C144.557 49.4004 144.657 48.9758 144.657 48.4991C144.657 48.0224 144.557 47.6021 144.358 47.2381C144.159 46.8654 143.881 46.5794 143.526 46.3801C143.179 46.1808 142.785 46.0811 142.343 46.0811C141.901 46.0811 141.502 46.1808 141.147 46.3801C140.8 46.5794 140.523 46.8654 140.315 47.2381C140.116 47.6021 140.016 48.0224 140.016 48.4991C140.016 48.9758 140.116 49.4004 140.315 49.7731C140.523 50.1371 140.8 50.4231 141.147 50.6311C141.502 50.8304 141.901 50.9301 142.343 50.9301ZM151.297 44.9891C151.964 44.9891 152.562 45.1364 153.091 45.4311C153.62 45.7258 154.031 46.1374 154.326 46.6661C154.629 47.1948 154.781 47.8058 154.781 48.4991C154.781 49.1924 154.629 49.8078 154.326 50.3451C154.031 50.8738 153.62 51.2854 153.091 51.5801C152.562 51.8748 151.964 52.0221 151.297 52.0221C150.786 52.0221 150.318 51.9224 149.893 51.7231C149.468 51.5238 149.117 51.2334 148.84 50.8521V51.9441H147.644V42.2981H148.892V46.0941C149.169 45.7301 149.516 45.4571 149.932 45.2751C150.348 45.0844 150.803 44.9891 151.297 44.9891ZM151.193 50.9301C151.635 50.9301 152.029 50.8304 152.376 50.6311C152.731 50.4231 153.009 50.1371 153.208 49.7731C153.416 49.4004 153.52 48.9758 153.52 48.4991C153.52 48.0224 153.416 47.6021 153.208 47.2381C153.009 46.8654 152.731 46.5794 152.376 46.3801C152.029 46.1808 151.635 46.0811 151.193 46.0811C150.76 46.0811 150.365 46.1808 150.01 46.3801C149.655 46.5794 149.377 46.8654 149.178 47.2381C148.979 47.6021 148.879 48.0224 148.879 48.4991C148.879 48.9758 148.979 49.4004 149.178 49.7731C149.377 50.1371 149.655 50.4231 150.01 50.6311C150.365 50.8304 150.76 50.9301 151.193 50.9301ZM158.951 44.9891C159.904 44.9891 160.632 45.2231 161.135 45.6911C161.646 46.1591 161.902 46.8568 161.902 47.7841V51.9441H160.719V51.0341C160.511 51.3548 160.212 51.6018 159.822 51.7751C159.44 51.9398 158.985 52.0221 158.457 52.0221C157.685 52.0221 157.066 51.8358 156.598 51.4631C156.138 51.0904 155.909 50.6008 155.909 49.9941C155.909 49.3874 156.13 48.9021 156.572 48.5381C157.014 48.1654 157.716 47.9791 158.678 47.9791H160.654V47.7321C160.654 47.1948 160.498 46.7831 160.186 46.4971C159.874 46.2111 159.414 46.0681 158.808 46.0681C158.4 46.0681 158.002 46.1374 157.612 46.2761C157.222 46.4061 156.892 46.5838 156.624 46.8091L156.104 45.8731C156.459 45.5871 156.884 45.3704 157.378 45.2231C157.872 45.0671 158.396 44.9891 158.951 44.9891ZM158.665 51.0601C159.141 51.0601 159.553 50.9561 159.9 50.7481C160.246 50.5314 160.498 50.2281 160.654 49.8381V48.8761H158.73C157.672 48.8761 157.144 49.2314 157.144 49.9421C157.144 50.2888 157.278 50.5618 157.547 50.7611C157.815 50.9604 158.188 51.0601 158.665 51.0601ZM164.211 42.2981H165.459V51.9441H164.211V42.2981ZM177.599 51.9441L175.636 49.1491C175.394 49.1664 175.203 49.1751 175.064 49.1751H172.815V51.9441H171.515V42.8441H175.064C176.243 42.8441 177.17 43.1258 177.846 43.6891C178.522 44.2524 178.86 45.0281 178.86 46.0161C178.86 46.7181 178.687 47.3161 178.34 47.8101C177.994 48.3041 177.5 48.6638 176.858 48.8891L179.016 51.9441H177.599ZM175.025 48.0701C175.849 48.0701 176.477 47.8924 176.91 47.5371C177.344 47.1818 177.56 46.6748 177.56 46.0161C177.56 45.3574 177.344 44.8548 176.91 44.5081C176.477 44.1528 175.849 43.9751 175.025 43.9751H172.815V48.0701H175.025ZM183.224 44.9891C184.178 44.9891 184.906 45.2231 185.408 45.6911C185.92 46.1591 186.175 46.8568 186.175 47.7841V51.9441H184.992V51.0341C184.784 51.3548 184.485 51.6018 184.095 51.7751C183.714 51.9398 183.259 52.0221 182.73 52.0221C181.959 52.0221 181.339 51.8358 180.871 51.4631C180.412 51.0904 180.182 50.6008 180.182 49.9941C180.182 49.3874 180.403 48.9021 180.845 48.5381C181.287 48.1654 181.989 47.9791 182.951 47.9791H184.927V47.7321C184.927 47.1948 184.771 46.7831 184.459 46.4971C184.147 46.2111 183.688 46.0681 183.081 46.0681C182.674 46.0681 182.275 46.1374 181.885 46.2761C181.495 46.4061 181.166 46.5838 180.897 46.8091L180.377 45.8731C180.733 45.5871 181.157 45.3704 181.651 45.2231C182.145 45.0671 182.67 44.9891 183.224 44.9891ZM182.938 51.0601C183.415 51.0601 183.827 50.9561 184.173 50.7481C184.52 50.5314 184.771 50.2281 184.927 49.8381V48.8761H183.003C181.946 48.8761 181.417 49.2314 181.417 49.9421C181.417 50.2888 181.552 50.5618 181.82 50.7611C182.089 50.9604 182.462 51.0601 182.938 51.0601ZM188.485 45.0541H189.733V51.9441H188.485V45.0541ZM189.109 43.7281C188.866 43.7281 188.662 43.6501 188.498 43.4941C188.342 43.3381 188.264 43.1474 188.264 42.9221C188.264 42.6968 188.342 42.5061 188.498 42.3501C188.662 42.1854 188.866 42.1031 189.109 42.1031C189.351 42.1031 189.551 42.1811 189.707 42.3371C189.871 42.4844 189.954 42.6708 189.954 42.8961C189.954 43.1301 189.871 43.3294 189.707 43.4941C189.551 43.6501 189.351 43.7281 189.109 43.7281ZM195.99 51.5411C195.808 51.6971 195.582 51.8184 195.314 51.9051C195.045 51.9831 194.768 52.0221 194.482 52.0221C193.788 52.0221 193.251 51.8358 192.87 51.4631C192.488 51.0904 192.298 50.5574 192.298 49.8641V46.0811H191.128V45.0541H192.298V43.5461H193.546V45.0541H195.522V46.0811H193.546V49.8121C193.546 50.1848 193.637 50.4708 193.819 50.6701C194.009 50.8694 194.278 50.9691 194.625 50.9691C195.006 50.9691 195.331 50.8608 195.6 50.6441L195.99 51.5411ZM197.498 45.0541H198.746V51.9441H197.498V45.0541ZM198.122 43.7281C197.88 43.7281 197.676 43.6501 197.511 43.4941C197.355 43.3381 197.277 43.1474 197.277 42.9221C197.277 42.6968 197.355 42.5061 197.511 42.3501C197.676 42.1854 197.88 42.1031 198.122 42.1031C198.365 42.1031 198.564 42.1811 198.72 42.3371C198.885 42.4844 198.967 42.6708 198.967 42.8961C198.967 43.1301 198.885 43.3294 198.72 43.4941C198.564 43.6501 198.365 43.7281 198.122 43.7281ZM204.808 44.9891C205.684 44.9891 206.377 45.2448 206.888 45.7561C207.408 46.2588 207.668 46.9998 207.668 47.9791V51.9441H206.42V48.1221C206.42 47.4548 206.26 46.9521 205.939 46.6141C205.619 46.2761 205.159 46.1071 204.561 46.1071C203.885 46.1071 203.352 46.3064 202.962 46.7051C202.572 47.0951 202.377 47.6584 202.377 48.3951V51.9441H201.129V45.0541H202.325V46.0941C202.577 45.7388 202.915 45.4658 203.339 45.2751C203.773 45.0844 204.262 44.9891 204.808 44.9891ZM216.607 45.0541V51.0081C216.607 52.2128 216.308 53.1011 215.71 53.6731C215.112 54.2538 214.219 54.5441 213.032 54.5441C212.382 54.5441 211.762 54.4531 211.173 54.2711C210.584 54.0978 210.107 53.8464 209.743 53.5171L210.341 52.5551C210.662 52.8324 211.056 53.0491 211.524 53.2051C212.001 53.3698 212.49 53.4521 212.993 53.4521C213.799 53.4521 214.393 53.2614 214.774 52.8801C215.164 52.4988 215.359 51.9181 215.359 51.1381V50.5921C215.064 50.9474 214.7 51.2161 214.267 51.3981C213.842 51.5714 213.379 51.6581 212.876 51.6581C212.217 51.6581 211.619 51.5194 211.082 51.2421C210.553 50.9561 210.137 50.5618 209.834 50.0591C209.531 49.5478 209.379 48.9671 209.379 48.3171C209.379 47.6671 209.531 47.0908 209.834 46.5881C210.137 46.0768 210.553 45.6824 211.082 45.4051C211.619 45.1278 212.217 44.9891 212.876 44.9891C213.396 44.9891 213.877 45.0844 214.319 45.2751C214.77 45.4658 215.138 45.7474 215.424 46.1201V45.0541H216.607ZM213.019 50.5661C213.47 50.5661 213.873 50.4708 214.228 50.2801C214.592 50.0894 214.874 49.8251 215.073 49.4871C215.281 49.1404 215.385 48.7504 215.385 48.3171C215.385 47.6498 215.164 47.1124 214.722 46.7051C214.28 46.2891 213.712 46.0811 213.019 46.0811C212.317 46.0811 211.745 46.2891 211.303 46.7051C210.861 47.1124 210.64 47.6498 210.64 48.3171C210.64 48.7504 210.74 49.1404 210.939 49.4871C211.147 49.8251 211.429 50.0894 211.784 50.2801C212.148 50.4708 212.56 50.5661 213.019 50.5661Z" fill="white"/>
<defs>
<clipPath id="clip0_23_611">
<rect width="21" height="21" fill="white" transform="translate(211 7.94409)"/>
</clipPath>
<clipPath id="clip1_23_611">
<rect width="23" height="23" fill="white" transform="translate(178 5.94409)"/>
</clipPath>
<clipPath id="clip2_23_611">
<rect width="25" height="25" fill="white" transform="translate(143 3.94409)"/>
</clipPath>
<clipPath id="clip3_23_611">
<rect width="23" height="23" fill="white" transform="translate(110 5.94409)"/>
</clipPath>
<clipPath id="clip4_23_611">
<rect width="21" height="21" fill="white" transform="translate(79 7.94409)"/>
</clipPath>
</defs>
</svg>
